<?xml version="1.0" encoding="UTF-8"?>
<svg xmlns="http://www.w3.org/2000/svg" id="a" width="865.76" height="682.89" viewBox="0 0 865.76 682.89">
  <g>
    <path d="M266.15,592.94c-1.14-.5-2.12-1.29-2.84-2.31-.68-.97-1.07-2.12-1.11-3.31h2.55c.13,1.19,.68,2.28,1.56,3.09,1.11,.94,2.55,1.42,4,1.32,1.4,.07,2.78-.37,3.88-1.25,.94-.8,1.46-1.97,1.43-3.2,.04-.9-.24-1.79-.79-2.5-.54-.63-1.22-1.12-2-1.41-1.06-.39-2.15-.72-3.25-1-1.31-.33-2.59-.76-3.83-1.27-.96-.43-1.79-1.1-2.41-1.94-.72-1.04-1.07-2.29-1-3.55,0-1.18,.35-2.34,1-3.33,.68-1,1.62-1.8,2.73-2.29,1.25-.57,2.62-.85,4-.83,1.93-.09,3.84,.49,5.39,1.64,1.33,1.02,2.19,2.55,2.37,4.22h-2.62c-.21-1.05-.79-1.98-1.63-2.63-2.2-1.55-5.14-1.55-7.34,0-.96,.76-1.5,1.93-1.45,3.15-.04,.89,.24,1.76,.79,2.45,.54,.63,1.23,1.11,2,1.41,1.06,.4,2.13,.73,3.23,1,1.29,.35,2.56,.78,3.79,1.29,.98,.44,1.82,1.13,2.45,2,.71,1.03,1.07,2.27,1,3.52,0,1.13-.31,2.24-.89,3.21-.64,1.05-1.56,1.9-2.66,2.45-1.31,.65-2.75,.97-4.21,.93-1.43,.01-2.84-.28-4.14-.86Z" fill="#002346"></path>
    <path d="M299.73,585.04h-15.62c.01,1.29,.36,2.55,1,3.66,.58,.98,1.43,1.77,2.45,2.29,1.02,.52,2.16,.79,3.31,.78,1.42,.06,2.82-.34,4-1.14,1.05-.73,1.81-1.82,2.12-3.07h2.56c-.44,1.79-1.48,3.38-2.95,4.5-1.64,1.21-3.64,1.82-5.68,1.74-1.66,.03-3.31-.38-4.76-1.19-1.4-.79-2.54-1.96-3.29-3.38-.83-1.58-1.24-3.34-1.19-5.12-.04-1.78,.36-3.55,1.17-5.14,.73-1.43,1.88-2.6,3.28-3.38,1.47-.8,3.12-1.2,4.79-1.17,1.65-.04,3.27,.37,4.71,1.17,1.31,.74,2.38,1.84,3.1,3.16,.73,1.35,1.11,2.86,1.09,4.39,0,.63-.03,1.27-.09,1.9Zm-3.22-5.55c-.56-.97-1.4-1.75-2.4-2.24-1.03-.51-2.16-.77-3.31-.76-1.69-.04-3.34,.58-4.59,1.72-1.33,1.27-2.08,3.03-2.1,4.87h13.24c.06-1.25-.23-2.49-.84-3.59Z" fill="#002346"></path>
    <path d="M309.02,575.31c1.22-.68,2.6-1.03,4-1v2.52h-.65c-1.53-.07-3.03,.43-4.21,1.41-1.06,.94-1.59,2.52-1.59,4.73v10.52h-2.35v-18.8h2.41v3.35c.5-1.13,1.33-2.09,2.39-2.73Z" fill="#002346"></path>
    <path d="M323.4,591.18l6.34-16.49h2.56l-7.56,18.84h-2.72l-7.56-18.84h2.56l6.38,16.49Z" fill="#002346"></path>
    <path d="M335.54,570.62c-.34-.33-.53-.79-.52-1.27-.02-.48,.17-.93,.52-1.26,.69-.67,1.79-.67,2.48,0,.35,.33,.54,.78,.52,1.26,.01,.48-.18,.94-.52,1.27-.67,.68-1.78,.69-2.46,.02,0,0-.01-.01-.02-.02Zm2.45,4.07v18.84h-2.42v-18.84h2.42Z" fill="#002346"></path>
    <path d="M343.54,578.99c.73-1.41,1.86-2.59,3.24-3.38,3.32-1.76,7.34-1.56,10.47,.53,1.51,1.16,2.55,2.82,2.92,4.69h-2.59c-.28-1.29-1.02-2.42-2.09-3.19-1.18-.8-2.58-1.21-4-1.15-1.2-.02-2.37,.28-3.42,.86-1.04,.6-1.87,1.49-2.39,2.57-1.17,2.68-1.17,5.72,0,8.4,.52,1.08,1.35,1.99,2.39,2.59,1.05,.58,2.22,.88,3.42,.86,1.42,.05,2.83-.35,4-1.16,1.08-.77,1.82-1.92,2.09-3.22h2.59c-.39,1.85-1.43,3.5-2.93,4.65-1.65,1.22-3.68,1.84-5.73,1.76-1.65,.03-3.29-.38-4.73-1.19-1.38-.79-2.51-1.97-3.24-3.38-1.56-3.24-1.56-7,0-10.24h0Z" fill="#002346"></path>
    <path d="M381.59,585.04h-15.63c.02,1.28,.36,2.54,1,3.66,.58,.98,1.43,1.78,2.45,2.29,1.02,.52,2.16,.79,3.31,.78,1.4,.05,2.79-.35,3.95-1.14,1.05-.74,1.8-1.83,2.12-3.07h2.55c-.43,1.8-1.48,3.39-2.95,4.5-1.64,1.2-3.64,1.82-5.67,1.74-1.66,.03-3.31-.38-4.76-1.19-1.4-.79-2.55-1.96-3.3-3.38-.82-1.58-1.23-3.34-1.19-5.12-.04-1.78,.36-3.55,1.18-5.14,.73-1.42,1.87-2.6,3.27-3.38,1.47-.8,3.13-1.2,4.8-1.17,1.65-.04,3.27,.37,4.71,1.17,1.31,.74,2.38,1.84,3.1,3.16,.73,1.35,1.11,2.86,1.09,4.39,.04,.83,.01,1.47-.03,1.9Zm-3.23-5.55c-.56-.97-1.39-1.75-2.39-2.24-1.03-.51-2.17-.77-3.32-.76-1.69-.04-3.33,.58-4.58,1.72-1.33,1.28-2.09,3.03-2.11,4.87h13.25c.06-1.25-.24-2.5-.85-3.59Z" fill="#002346"></path>
    <path d="M397.84,569.41v15.18c0,2.4,.56,4.17,1.7,5.32,1.26,1.19,2.95,1.82,4.68,1.72,1.72,.1,3.4-.52,4.64-1.71,1.11-1.14,1.67-2.91,1.67-5.33v-15.18h2.41v15.15c0,3.06-.81,5.36-2.43,6.9-3.66,3.08-9,3.08-12.66,0-1.62-1.54-2.43-3.84-2.43-6.9v-15.15h2.42Z" fill="#002346"></path>
    <path d="M432.68,576.44c1.51,1.64,2.29,3.83,2.13,6.05v11h-2.38v-10.69c.11-1.7-.43-3.38-1.53-4.69-1.1-1.11-2.63-1.7-4.19-1.62-1.63-.07-3.22,.56-4.35,1.73-1.17,1.42-1.75,3.23-1.62,5.07v10.28h-2.41v-18.88h2.41v3.21c.57-1.12,1.48-2.05,2.59-2.64,1.18-.62,2.5-.94,3.83-.91,2.05-.08,4.04,.67,5.52,2.09Z" fill="#002346"></path>
    <path d="M440.21,578.99c.72-1.41,1.84-2.59,3.21-3.38,1.41-.81,3.01-1.22,4.64-1.19,1.63-.04,3.25,.39,4.64,1.24,1.23,.75,2.21,1.86,2.81,3.17v-4.14h2.42v18.84h-2.42v-4.18c-.62,1.31-1.61,2.42-2.84,3.19-1.39,.87-3.01,1.3-4.65,1.26-1.62,.02-3.21-.39-4.61-1.2-1.37-.81-2.49-2-3.21-3.42-1.53-3.22-1.53-6.97,0-10.19h0Zm14.37,1.12c-.58-1.11-1.46-2.03-2.54-2.66-1.07-.62-2.29-.94-3.53-.93-1.25-.02-2.49,.29-3.59,.9-1.07,.61-1.94,1.51-2.5,2.6-.64,1.26-.95,2.65-.91,4.06-.03,1.4,.28,2.79,.91,4.05,.56,1.11,1.43,2.03,2.5,2.66,1.09,.62,2.33,.93,3.59,.91,1.23,.02,2.44-.29,3.51-.9,1.08-.63,1.96-1.55,2.54-2.66,1.24-2.52,1.24-5.48,0-8l.02-.03Z" fill="#002346"></path>
    <path d="M470.14,591.18l6.34-16.49h2.54l-7.56,18.84h-2.72l-7.56-18.84h2.59l6.37,16.49Z" fill="#002346"></path>
    <path d="M482.37,578.99c.72-1.41,1.83-2.58,3.2-3.38,1.41-.81,3.01-1.22,4.64-1.19,1.63-.05,3.25,.38,4.64,1.24,1.23,.75,2.21,1.86,2.81,3.17v-4.14h2.42v18.84h-2.42v-4.18c-.61,1.32-1.6,2.43-2.84,3.19-1.39,.86-3,1.3-4.64,1.26-1.62,.02-3.21-.39-4.61-1.2-1.37-.82-2.48-2-3.2-3.42-1.55-3.22-1.55-6.97,0-10.19h0Zm14.36,1.12c-.58-1.11-1.45-2.03-2.53-2.66-1.08-.62-2.3-.94-3.54-.93-1.25-.02-2.49,.29-3.59,.9-1.07,.61-1.93,1.51-2.5,2.6-.64,1.26-.95,2.65-.91,4.06-.03,1.4,.28,2.79,.91,4.05,.56,1.11,1.43,2.03,2.5,2.66,1.09,.62,2.33,.93,3.59,.91,1.24,.01,2.46-.31,3.54-.93,1.08-.63,1.95-1.55,2.53-2.66,1.24-2.52,1.24-5.48,0-8Z" fill="#002346"></path>
    <path d="M505.56,570.62c-.34-.34-.52-.79-.51-1.27-.02-.47,.17-.93,.51-1.26,.7-.67,1.79-.67,2.49,0,.34,.33,.53,.79,.51,1.26,.01,.48-.17,.93-.51,1.27-.68,.69-1.79,.69-2.47,.02,0,0-.01-.01-.02-.02Zm2.45,4.07v18.84h-2.41v-18.84h2.41Z" fill="#002346"></path>
    <path d="M515.91,568v25.53h-2.41v-25.53h2.41Z" fill="#002346"></path>
    <path d="M521.45,578.99c.72-1.41,1.84-2.59,3.21-3.38,1.41-.81,3.01-1.22,4.64-1.19,1.63-.04,3.25,.39,4.64,1.24,1.23,.76,2.2,1.86,2.81,3.17v-4.14h2.41v18.84h-2.41v-4.18c-.62,1.32-1.61,2.43-2.85,3.19-1.39,.86-3,1.3-4.64,1.26-1.61,.02-3.2-.39-4.6-1.2-1.37-.81-2.49-2-3.21-3.42-1.55-3.22-1.55-6.97,0-10.19Zm14.37,1.12c-.58-1.11-1.46-2.03-2.54-2.66-1.08-.62-2.3-.94-3.54-.93-1.25-.02-2.49,.29-3.58,.9-1.07,.6-1.94,1.51-2.5,2.6-.64,1.26-.96,2.65-.92,4.06-.03,1.4,.29,2.8,.92,4.05,.56,1.11,1.43,2.04,2.5,2.66,1.09,.62,2.33,.93,3.58,.91,1.24,.01,2.46-.31,3.54-.93,1.08-.63,1.96-1.55,2.54-2.66,1.24-2.52,1.24-5.48,0-8Z" fill="#002346"></path>
    <path d="M549.94,575.66c1.38-.85,2.99-1.28,4.61-1.24,1.62-.03,3.22,.38,4.62,1.19,1.36,.8,2.47,1.97,3.19,3.38,1.53,3.22,1.53,6.97,0,10.19-.72,1.42-1.84,2.61-3.21,3.42-1.4,.81-2.99,1.22-4.6,1.2-1.63,.05-3.24-.38-4.64-1.22-1.25-.76-2.24-1.87-2.85-3.19v4.14h-2.38v-25.53h2.34v10.87c.64-1.33,1.66-2.44,2.92-3.21Zm10.21,4.36c-.56-1.09-1.43-1.99-2.5-2.6-1.1-.61-2.34-.92-3.59-.9-1.24-.01-2.46,.31-3.53,.93-1.08,.63-1.96,1.55-2.54,2.66-1.24,2.52-1.24,5.48,0,8,.58,1.11,1.46,2.03,2.54,2.66,1.07,.62,2.29,.94,3.53,.93,1.26,.02,2.5-.29,3.59-.91,1.07-.63,1.94-1.55,2.5-2.66,.63-1.25,.95-2.65,.92-4.05,.04-1.41-.28-2.8-.92-4.06Z" fill="#002346"></path>
    <path d="M570.37,568v25.53h-2.42v-25.53h2.42Z" fill="#002346"></path>
    <path d="M592.83,585.04h-15.62c.02,1.28,.36,2.54,1,3.66,.58,.98,1.43,1.77,2.45,2.29,1.04,.54,2.19,.82,3.36,.81,1.4,.05,2.79-.35,3.95-1.14,1.05-.73,1.81-1.82,2.12-3.07h2.56c-.45,1.8-1.51,3.39-3,4.5-1.63,1.18-3.61,1.79-5.63,1.71-1.66,.03-3.31-.38-4.76-1.19-1.4-.79-2.54-1.96-3.29-3.38-.83-1.58-1.24-3.34-1.19-5.12-.04-1.78,.36-3.55,1.17-5.14,.73-1.43,1.88-2.6,3.28-3.38,1.47-.8,3.12-1.2,4.79-1.17,1.65-.04,3.27,.36,4.71,1.17,1.31,.76,2.38,1.87,3.09,3.21,.73,1.35,1.1,2.86,1.08,4.39,0,.62-.02,1.23-.07,1.85Zm-3.22-5.55c-.56-.97-1.4-1.75-2.4-2.24-1.03-.51-2.16-.77-3.31-.76-1.69-.04-3.34,.58-4.59,1.72-1.32,1.28-2.07,3.03-2.1,4.87h13.24c.07-1.25-.22-2.5-.84-3.59Z" fill="#002346"></path>
  </g>
  <path d="M295.91,440.8h-59.73v26.42c2.99-3.1,6.66-5.46,10.72-6.89,4.77-1.82,9.83-2.73,14.93-2.68,9.57,0,17.51,2.17,23.83,6.51,6.16,4.15,10.99,10,13.88,16.84,2.98,7.09,4.48,14.71,4.41,22.4,0,14.94-4.21,26.78-12.64,35.52s-20.3,13.11-35.61,13.11c-10.21,0-19.08-1.75-26.61-5.26-7.08-3.13-13.12-8.21-17.42-14.65-4.16-6.47-6.47-13.95-6.7-21.63h32c.69,3.82,2.65,7.29,5.55,9.86,2.94,2.61,6.96,3.92,12.06,3.92,6,0,10.47-1.91,13.41-5.74,2.94-3.83,4.41-8.93,4.4-15.32,0-6.25-1.53-11.03-4.6-14.36-3.07-3.33-7.53-4.99-13.4-5-3.82-.16-7.59,.95-10.72,3.15-2.77,2.04-4.73,4.99-5.55,8.33h-31.62v-83.29h89.41v28.76Z" fill="#002346"></path>
  <path d="M334.67,428.32c8.49-12.67,22.18-19,41.07-19s32.58,6.33,41.07,19c8.48,12.63,12.72,29.92,12.73,51.88,0,22.21-4.24,39.63-12.73,52.26-8.49,12.63-22.18,18.96-41.07,19-18.89,0-32.58-6.33-41.07-19-8.49-12.67-12.73-30.09-12.73-52.26s4.24-39.24,12.73-51.88Zm58.49,22.11c-2.81-6.96-8.62-10.44-17.42-10.44-8.8,0-14.61,3.48-17.42,10.44-2.81,6.95-4.21,16.87-4.21,29.77-.11,7.21,.4,14.42,1.53,21.54,.75,5.08,2.9,9.86,6.22,13.78,3.13,3.51,7.76,5.26,13.88,5.27,6.12,0,10.75-1.75,13.88-5.27,3.32-3.92,5.47-8.7,6.22-13.78,1.13-7.12,1.64-14.33,1.53-21.54,0-12.89-1.4-22.81-4.21-29.77h0Z" fill="#002346"></path>
  <path d="M461.32,420.08c8.42-7.4,19.84-11.1,34.27-11.1,9.57,0,17.77,1.67,24.6,5,12.91,5.81,21.08,18.78,20.77,32.93,0,8.42-2.11,15.28-6.32,20.58-3.75,4.96-8.88,8.72-14.74,10.81v.77c6.86,2.13,12.88,6.35,17.23,12.06,4.21,5.62,6.32,12.83,6.32,21.63,.15,7.37-1.74,14.64-5.46,21-3.79,6.2-9.32,11.16-15.89,14.26-6.96,3.45-15.22,5.18-24.79,5.17-15.33,0-27.55-3.77-36.66-11.3-9.11-7.53-13.93-18.9-14.46-34.09h31.83c.13,5.61,1.72,10.04,4.79,13.3,3.07,3.26,7.53,4.89,13.4,4.88,4.98,0,8.84-1.43,11.58-4.3,2.75-2.88,4.12-6.67,4.12-11.4,0-6.12-1.95-10.55-5.84-13.3-3.89-2.75-10.13-4.14-18.72-4.18h-6.12v-26.58h6.12c6.51,0,11.77-1.12,15.8-3.35,4.03-2.23,6.03-6.23,6-12,0-4.6-1.28-8.17-3.83-10.72-2.55-2.55-6.06-3.82-10.53-3.83-4.85,0-8.46,1.47-10.82,4.4-2.44,3.14-3.87,6.94-4.11,10.91h-32c.55-13.62,5.03-24.14,13.46-31.55Z" fill="#002346"></path>
  <path d="M181.28,583.69c-3.21,0-6.42-.16-9.62-.5-10.54-1.06-20.73-4.36-29.89-9.69-20.45-12.14-32.33-34.74-30.75-58.47,.64-12.04,6.24-23.28,15.46-31.05,13.64-11.71,33.87-16.13,48.43-17.77,9.47-1.07,19.01-1.33,28.52-.78,.83,.07,1.45,.79,1.38,1.62-.07,.83-.79,1.45-1.62,1.38h0c-.49,0-49.69-3.69-74.76,17.84-8.61,7.26-13.83,17.76-14.42,29-1.49,22.6,9.85,44.12,29.33,55.67,19.17,11.31,43.13,12.85,71.23,4.58,15.37-4.59,29.93-11.54,43.16-20.59l92.15-62.46c1.25-1.09,15.27-13,39.42-22.42,14.46-5.68,29.66-9.29,45.13-10.71,19.62-1.73,39.38-.04,58.42,5h0l113.77,33.65c1.06,.25,28.37,6.42,50.07-7.93,13.71-9.07,22.42-24.36,25.87-45.44,1.16-11.69-.15-23.5-3.84-34.66-8.14-24.06-26.49-39.37-54.55-45.51-10.77-2.28-21.82-2.91-32.77-1.87-6.35,.56-15,1.09-24.68,1.09-28.8,0-67.07-4.72-83.51-27.57-10.91-15.16-10.61-36.2,.88-62.54,.37-.74,1.26-1.05,2.01-.68,.69,.34,1.01,1.15,.74,1.87-11,25.31-11.44,45.36-1.2,59.6,9.12,12.67,26.54,20.88,51.78,24.41,21.2,3,42.76,1.79,53.72,.83,11.26-1.06,22.61-.41,33.67,1.94,16,3.5,29.21,10.08,39.16,19.54,8.1,7.75,14.15,17.39,17.62,28.05,3.87,11.58,5.21,23.86,3.93,36-3.6,22-12.75,38-27.2,47.49-23.14,15.29-51.26,8.62-52.44,8.33h-.07l-113.79-33.73c-43.34-11.27-79.15-3.2-101.56,5.57-24.33,9.51-38.59,21.86-38.73,22l-.14,.12-92.23,62.51c-13.49,9.23-28.34,16.32-44,21-11.05,3.38-22.53,5.16-34.08,5.28Z" fill="#fff"></path>
  <g>
    <path d="M181.28,584.19c-3.23,0-6.46-.17-9.67-.51-10.61-1.06-20.87-4.38-30.09-9.75-20.61-12.24-32.59-35.02-31-58.93,.65-12.18,6.31-23.54,15.63-31.4,13.74-11.79,34.07-16.24,48.7-17.89,9.5-1.08,19.08-1.34,28.62-.77,.53,.03,1.02,.28,1.36,.69,.35,.4,.52,.93,.48,1.46-.05,.53-.3,1.01-.7,1.36-.4,.34-.93,.51-1.46,.47-.49,0-49.51-3.65-74.4,17.72-8.5,7.17-13.66,17.54-14.25,28.65-1.47,22.41,9.77,43.74,29.09,55.2,19.05,11.23,42.88,12.76,70.84,4.54,15.31-4.59,29.81-11.51,43-20.54l92.15-62.46c1.46-1.27,15.4-13,39.51-22.46,14.5-5.7,29.74-9.33,45.26-10.77,19.67-1.74,39.49-.04,58.58,5l113.83,33.68c1.12,.26,28.11,6.38,49.66-7.87,13.59-9,22.22-24.16,25.65-45.1,1.12-11.61-.18-23.34-3.83-34.42-8.07-23.88-26.3-39.08-54.18-45.18-10.71-2.27-21.71-2.9-32.61-1.86-8.28,.72-16.6,1.09-24.73,1.09-29.17,0-67.4-4.82-83.92-27.78-11-15.31-10.73-36.52,.83-63,.37-1.04,1.51-1.59,2.55-1.22,1.04,.37,1.59,1.51,1.22,2.55-.03,.09-.07,.17-.11,.25-11,25.13-11.38,45-1.24,59.11,9,12.55,26.34,20.7,51.44,24.21,21.14,3,42.66,1.78,53.61,.82,11.31-1.06,22.71-.4,33.82,1.95,16.12,3.52,29.37,10.14,39.4,19.67,8.15,7.82,14.24,17.52,17.75,28.25,3.9,11.64,5.26,23.98,4,36.19-3.63,22.12-12.85,38.22-27.42,47.84-23.34,15.42-51.65,8.69-52.84,8.39l-113.92-33.69c-33.48-8.95-68.94-7-101.24,5.55-24.22,9.47-38.44,21.78-38.58,21.9l-.19,.15-92.23,62.51c-13.54,9.26-28.43,16.37-44.14,21.06-11.1,3.4-22.62,5.19-34.23,5.33Zm12.84-118.53c-6.41,0-12.82,.34-19.19,1.05-14.5,1.63-34.62,6-48.17,17.65-9.12,7.69-14.65,18.8-15.29,30.71-1.55,23.55,10.26,45.96,30.56,58,9.09,5.29,19.21,8.57,29.68,9.62,13.17,1.42,27.91-.2,43.52-4.79,15.61-4.67,30.41-11.73,43.86-20.93l92.23-62.51,.09-.07c.15-.13,14.5-12.55,38.87-22.08,22.49-8.79,58.41-16.89,101.88-5.58l113.79,33.67c1.23,.3,29.12,6.93,52.1-8.25,14.32-9.46,23.4-25.32,27-47.16,1.26-12.05-.07-24.23-3.91-35.72-3.45-10.58-9.46-20.14-17.49-27.84-9.89-9.4-23-15.93-38.92-19.42-11.02-2.33-22.32-2.98-33.53-1.92-11,1-32.59,2.14-53.83-.83-25.38-3.55-42.92-11.84-52.11-24.62-10.36-14.39-10-34.61,1.14-60.09,.1-.24,.1-.52,0-.76-.1-.25-.29-.44-.53-.55-.51-.22-1.09,.02-1.31,.52-11.42,26.16-11.73,47-.93,62,16.27,22.62,54.17,27.36,83.1,27.36,8.1,0,16.39-.37,24.64-1.09,11.01-1.04,22.11-.4,32.92,1.89,28.24,6.17,46.71,21.6,54.91,45.83,3.68,11.26,4.98,23.15,3.82,34.94-3.48,21.24-12.26,36.64-26.09,45.78-21.9,14.49-49.31,8.28-50.46,8l-113.76-33.67c-18.99-5.03-38.7-6.72-58.27-5-15.43,1.42-30.58,5.02-45,10.68-24,9.39-37.78,21-39.27,22.33l-92.15,62.51c-13.28,9.08-27.89,16.05-43.3,20.66-28.23,8.31-52.33,6.75-71.63-4.63-19.65-11.65-31.08-33.35-29.57-56.14,.58-11.36,5.83-21.97,14.5-29.33,25.2-21.64,74.64-18,75.13-18,.26,.02,.53-.06,.73-.23,.2-.17,.33-.42,.35-.68,.02-.27-.07-.53-.24-.73-.17-.2-.42-.33-.68-.35-.02,.04-3.57-.23-9.19-.23Z" fill="#5b66e6"></path>
    <path d="M181.17,584.69c-3.2,0-6.43-.17-9.62-.51-10.76-1.07-20.95-4.37-30.29-9.81-20.89-12.4-32.86-35.16-31.25-59.4,.65-12.26,6.41-23.83,15.81-31.75,13.84-11.88,34.27-16.35,48.97-18,9.5-1.08,19.16-1.34,28.71-.77,.66,.04,1.29,.36,1.71,.87,.43,.49,.65,1.16,.6,1.82-.06,.67-.37,1.27-.87,1.7-.51,.43-1.17,.65-1.83,.59,.02,0-.06,0-.21-.01-8.34-.49-51.09-1.91-73.83,17.61-8.36,7.06-13.49,17.37-14.08,28.3-1.47,22.35,9.59,43.32,28.85,54.74,18.93,11.16,42.63,12.67,70.44,4.49,15.28-4.58,29.7-11.46,42.86-20.47l92.15-62.46c1.45-1.27,15.29-12.97,39.61-22.51,14.55-5.72,29.83-9.36,45.4-10.8,19.79-1.74,39.55-.06,58.75,5.01l113.84,33.68c1.1,.25,27.96,6.27,49.24-7.81,13.47-8.92,22.03-23.98,25.43-44.76,1.12-11.58-.16-23.1-3.81-34.18-8.01-23.7-26.11-38.79-53.81-44.85-10.67-2.26-21.59-2.88-32.46-1.85-8.33,.73-16.67,1.09-24.78,1.09-29.28,0-67.68-4.86-84.33-27.99-11.12-15.48-10.86-36.84,.78-63.49,.21-.6,.67-1.1,1.27-1.39,.6-.29,1.28-.32,1.91-.1,.63,.22,1.13,.68,1.42,1.28,.29,.6,.32,1.28,.1,1.91-.04,.11-.08,.22-.14,.32-10.89,24.88-11.33,44.6-1.28,58.59,8.92,12.43,26.11,20.51,51.1,24.01,20.87,2.96,42.48,1.78,53.5,.82,11.37-1.07,22.8-.41,33.97,1.96,16.2,3.54,29.54,10.2,39.64,19.8,8.18,7.85,14.36,17.69,17.88,28.46,3.95,11.78,5.3,24.03,4.02,36.4-3.66,22.3-12.96,38.51-27.64,48.21-23.69,15.65-52.04,8.76-53.24,8.46l-113.94-33.7c-33.59-8.98-68.49-7.06-100.92,5.54-23.68,9.26-37.84,21.3-38.43,21.81l-.21,.17-92.26,62.53c-13.59,9.3-28.49,16.41-44.28,21.12-11.14,3.41-22.71,5.21-34.37,5.35h-.11Zm12.72-118.53c-6.29,0-12.65,.35-18.9,1.05-14.44,1.62-34.46,5.98-47.9,17.53-8.98,7.57-14.49,18.63-15.12,30.36-1.55,23.49,10.07,45.54,30.32,57.54,9.09,5.29,19.01,8.51,29.47,9.55,13.16,1.42,27.74-.19,43.33-4.77,15.58-4.66,30.29-11.68,43.72-20.86l92.29-62.56c.57-.5,14.82-12.7,39-22.15,22.55-8.81,58.59-16.94,102.19-5.6l113.81,33.67c1.15,.28,28.96,6.82,51.68-8.19,14.2-9.38,23.21-25.13,26.78-46.82,1.26-12.03-.05-23.98-3.89-35.48-3.42-10.46-9.42-20.02-17.36-27.64-9.81-9.32-22.83-15.82-38.68-19.29-10.97-2.32-22.2-2.96-33.38-1.91-8.75,.79-31.51,2.3-53.95-.83-25.52-3.57-43.17-11.92-52.45-24.82-10.49-14.56-10.12-34.95,1.09-60.58,.05-.11,.05-.25,0-.37-.05-.13-.15-.23-.27-.28-.25-.1-.54,.01-.65,.26-11.34,25.97-11.67,46.67-.98,61.51,16.14,22.44,53.88,27.15,82.69,27.15,8.05,0,16.33-.37,24.6-1.09,11.07-1.05,22.19-.41,33.07,1.9,28.42,6.21,47.02,21.74,55.28,46.16,3.73,11.4,5.02,23.22,3.84,35.15-3.51,21.41-12.36,36.93-26.31,46.15-22.34,14.78-50.57,8.14-50.85,8.07l-113.78-33.68c-18.97-5.03-38.52-6.71-58.08-4.98-15.38,1.42-30.48,5-44.86,10.65-25,9.78-38.98,22.11-39.12,22.24l-92.2,62.55c-13.34,9.12-27.95,16.1-43.44,20.73-28.37,8.35-52.6,6.78-72.03-4.68-19.92-11.81-31.34-33.5-29.81-56.6,.58-11.44,5.93-22.26,14.68-29.68,23.32-20.02,66.79-18.61,75.27-18.13h.19c.17,.03,.3-.02,.4-.1,.1-.08,.16-.21,.17-.34,.01-.13-.03-.26-.12-.36-.09-.1-.21-.17-.34-.18h0c-.18,0-.43,0-.81-.03-1.4-.07-4.32-.2-8.33-.2h-.23Zm21.48,112.22c-5.93,1.74-11.71,3.06-17.33,3.94,5.86-.89,11.65-2.21,17.33-3.94,0,0,0,0,0,0Zm10.61-3.58h0Zm.09-.03s-.01,0-.02,0c0,0,.01,0,.02,0Zm.09-.03s-.03,0-.04,.01c.01,0,.03,0,.04-.01Zm.09-.04s-.04,.01-.06,.02c.02,0,.04-.01,.06-.02Zm125.37-79.84l-92.25,62.53c-10.34,7.07-21.44,12.87-33.11,17.31,11.67-4.43,22.77-10.23,33.1-17.3l92.26-62.53Zm-49.82,30.16l-44.09,29.89c-10.42,7.13-21.63,12.95-33.43,17.35,11.81-4.39,23.02-10.21,33.45-17.34l44.06-29.89Zm-107.38-56.87c-15.99,0-47.54,2.2-66.08,18.11-6.96,5.9-11.72,14.02-13.54,22.87,1.85-8.86,6.64-16.98,13.63-22.87,23.02-19.77,66.13-18.34,74.53-17.85h.2c.43,.05,.82-.08,1.13-.34,.3-.26,.49-.63,.53-1.03,.03-.39-.1-.79-.36-1.09-.14-.17-.31-.3-.5-.39,.16,.09,.3,.2,.42,.35,.26,.3,.39,.7,.36,1.09-.03,.4-.22,.76-.53,1.02-.31,.26-.7,.38-1.09,.35,0,0-.07,0-.2-.01-1.64-.09-4.61-.22-8.48-.22Zm412.85,33.05c5.95,1.23,30.35,5.09,51.1-8.62,14.44-9.54,23.59-25.52,27.2-47.5,.65-6.34,.61-12.66-.14-18.9,.73,6.23,.77,12.53,.11,18.87-3.63,22.01-12.78,37.99-27.22,47.52-20.42,13.49-44.86,9.85-51.05,8.63Zm-157.9-42.55c14.65,0,29.21,1.9,43.46,5.67l113.77,33.67c.25,.06,27.24,6.42,49.06-7.31-21.46,13.46-47.9,7.54-49.03,7.28l-113.86-33.69c-19.08-5.04-38.73-6.72-58.39-4.98-1.7,.16-3.39,.34-5.08,.55,1.69-.21,3.38-.39,5.08-.55,5-.44,9.99-.66,14.98-.66Zm-45.22,9.48c-4.99,1.45-9.57,3.04-13.69,4.65-22.59,8.83-36.42,20.05-38.48,21.78,1.99-1.66,15.98-12.98,38.48-21.78,4.52-1.76,9.09-3.31,13.69-4.65Zm-210.52-2.98c-6.26,0-12.53,.35-18.73,1.06-1.42,.16-2.89,.35-4.4,.56,1.5-.21,2.96-.4,4.37-.56,6.37-.71,12.84-1.05,19.25-1.05,1.06,0,2.05,0,2.95,.02-1.14-.02-2.28-.04-3.43-.04Zm408.05-103.09c7.54,0,15.07,.79,22.48,2.36,28.07,6.14,46.42,21.45,54.55,45.51,.96,2.91,1.75,5.85,2.39,8.81-.63-2.97-1.42-5.92-2.38-8.83-8.14-24.06-26.49-39.37-54.54-45.5-10.77-2.28-21.8-2.92-32.77-1.88-8.3,.73-16.61,1.09-24.69,1.09-29.05,0-67.12-4.78-83.51-27.57-10.91-15.15-10.61-36.17,.88-62.49,.33-.75,1.21-1.1,1.96-.78,.37,.16,.65,.46,.8,.83,.12,.28,.14,.59,.07,.89,.12-.37,.1-.77-.07-1.12-.17-.36-.48-.63-.85-.77-.38-.13-.78-.11-1.15,.06-.36,.17-.63,.48-.77,.85-11.5,26.34-11.79,47.37-.9,62.54,16.4,22.79,54.47,27.57,83.51,27.57,8.08,0,16.39-.37,24.69-1.09,3.42-.33,6.85-.49,10.28-.49Zm-.06-2.97c-3.49,0-6.99,.16-10.48,.49-5.4,.47-13.34,1-22.49,1.06,9.89-.06,18.03-.65,22.5-1.06,4-.38,8-.54,12-.49-.51,0-1.02-.01-1.53-.01Z" fill="#002346"></path>
  </g>
  <rect x="488.12" y="187.67" width="94.36" height="167.04" rx="32.14" ry="32.14" transform="translate(-64.74 264.41) rotate(-26.22)" fill="#002346"></rect>
  <g opacity=".2">
    <rect x="488.12" y="187.67" width="94.36" height="167.04" rx="32.14" ry="32.14" transform="translate(-64.74 264.41) rotate(-26.22)"></rect>
  </g>
  <g>
    <path d="M534.6,195.05c-2.61-5.19-4.92-9.85-4.92-9.85,0,0,9.76-6,5.52-16.47-4.24-10.47-16.08-33.7-16.08-33.7l-23-.21-13.14,25.43,24.53,48.55c3.74,7.32,12.64,10.33,20.06,6.78h0c7.56-3.61,10.77-12.67,7.16-20.23-.04-.13-.09-.21-.13-.3Z" fill="#f2b3c1"></path>
    <path d="M520.96,217.59c-5.69,0-11.12-3.12-13.9-8.57l-24.65-48.78,13.4-25.93,23.61,.22,.14,.27c.12,.23,11.9,23.37,16.1,33.74,3.86,9.52-3.54,15.54-5.34,16.82,.61,1.22,2.56,5.16,4.73,9.46v.02s-.45,.2-.45,.2l.49-.14c.04,.08,.08,.17,.12,.29,3.69,7.73,.37,17.1-7.42,20.83-2.21,1.06-4.54,1.56-6.82,1.56Zm-37.42-57.34l24.41,48.32c3.65,7.14,12.17,10.02,19.4,6.55,7.3-3.49,10.41-12.26,6.92-19.56-.05-.13-.07-.17-.09-.21l-.04-.08c-2.61-5.19-4.92-9.85-4.92-9.85l-.2-.41,.39-.24c.38-.24,9.35-5.91,5.32-15.86-3.94-9.72-14.59-30.76-15.92-33.39l-22.39-.2-12.88,24.93Z" fill="#002346"></path>
  </g>
  <path d="M520.88,188.75c-2.44,0-5.02-.8-7.27-3.21-.19-.2-.18-.52,.02-.71,.2-.19,.52-.18,.71,.02,6.09,6.5,14.95,0,15.04-.06,.22-.17,.53-.12,.7,.1,.17,.22,.12,.53-.1,.7-.06,.05-4.3,3.15-9.1,3.15Z" fill="#002346"></path>
  <g>
    <path d="M471.82,175.94l.2-.14c-.71-1.93-1.32-3.9-1.83-5.9-4.59-23.9,12.19-36.78,15.89-38.54,4-1.9,9.87-7.39,25-1.71,2.31,.85,4.48,2.03,6.45,3.51,3.54,1.73,6.62,4.27,9,7.41,1.22,1.48,2.14,3.17,2.71,5-.07,0-1.14-1.83-3.35-4.39-1.28-1.52-2.73-2.88-4.32-4.07,2.75,3.49,4.33,7.76,4.54,12.2l-2.44-.76-16.79,3.25c-.73-4.58-4.86-8.74-6.95-10.59h-.13c4.3,16.68-11.75,26.28-11.75,26.28l13.07,28.74c-21.92,5.16-29.3-20.29-29.3-20.29Z" fill="#002346"></path>
    <path d="M495.46,197.41c-17.72,0-24.06-21.1-24.13-21.34l-.1-.34,.18-.13c-.66-1.83-1.23-3.71-1.71-5.59-4.55-23.68,11.86-37.07,16.16-39.12,.53-.25,1.09-.57,1.7-.91,4.13-2.32,10.37-5.81,23.69-.82,2.35,.86,4.57,2.07,6.57,3.58,3.51,1.71,6.68,4.32,9.1,7.51,1.25,1.52,2.2,3.26,2.79,5.15l.2,.65h-.68c-.28,0-.37-.12-.71-.62-.47-.69-1.45-2.12-3.02-3.94-.49-.58-1.01-1.14-1.54-1.67,1.58,2.89,2.49,6.11,2.64,9.45l.03,.71-3-.94-17.17,3.32-.08-.51c-.6-3.74-3.54-7.21-5.78-9.36,2.83,14.55-9.57,23.59-11.92,25.16l13.14,28.9-.59,.14c-2.04,.48-3.96,.7-5.77,.7Zm-23.06-21.28c.97,2.94,8.61,23.85,28,19.74l-13-28.59,.38-.23c.16-.09,15.68-9.61,11.52-25.73l-.16-.62h.96l.14,.13c2.25,1.99,6.08,5.93,7.02,10.38l16.42-3.18,1.87,.58c-.33-4.1-1.84-7.95-4.39-11.2l-2.33-2.97,3.03,2.26c.99,.74,1.94,1.56,2.82,2.43-2.09-2.29-4.61-4.17-7.38-5.53-2.01-1.5-4.14-2.66-6.4-3.49-12.88-4.84-18.88-1.47-22.85,.75-.62,.35-1.21,.68-1.76,.94-4.17,1.98-20.04,14.97-15.61,37.99,.5,1.94,1.11,3.91,1.81,5.82l.13,.36-.21,.15Z" fill="#002346"></path>
  </g>
  <g>
    <path d="M494.5,183.9c-1.22,1.88-3.59,2.64-5.68,1.82-2.02-.89-3.5-2.68-4-4.83-.39-1.26-.29-2.63,.29-3.82,1.16-1.38,2.92-2.09,4.71-1.91l4.68,8.74Z" fill="#f2b3c1"></path>
    <path d="M490.53,186.54c-.64,0-1.28-.12-1.9-.36-2.17-.96-3.77-2.89-4.3-5.18-.42-1.35-.31-2.84,.33-4.15l.07-.1c1.26-1.51,3.19-2.29,5.14-2.09l.26,.03,4.94,9.23-.16,.25c-.98,1.51-2.66,2.37-4.38,2.37Zm-5-9.2c-.5,1.07-.59,2.27-.24,3.4,.47,2.02,1.86,3.7,3.72,4.52,1.75,.69,3.77,.1,4.89-1.4l-4.41-8.23c-1.52-.08-2.98,.55-3.98,1.71Z" fill="#002346"></path>
  </g>
  <g>
    <path d="M474.11,144.06c3.3-1.77,4.54-5.87,2.78-9.17-.33-.62-.76-1.18-1.26-1.67-2.81-2.71-7.64-2.48-10.84-.14-3.03,2.55-4.93,6.18-5.3,10.12-.41,2.24-.22,4.54,.54,6.68,.79,2.17,2.62,3.79,4.87,4.3,2.55,.25,5.05-.85,6.58-2.9,1.49-2.05,2.61-4.34,3.31-6.78" fill="#002346"></path>
    <path d="M465.6,154.71c-.25,0-.5-.01-.76-.04-2.49-.56-4.44-2.29-5.29-4.63-.79-2.22-.98-4.62-.56-6.94,.38-4.05,2.32-7.77,5.47-10.41,3.63-2.65,8.67-2.57,11.51,.16,.54,.53,1,1.13,1.35,1.79,1.86,3.49,.59,7.83-2.83,9.76l.77,.22c-.72,2.5-1.86,4.83-3.39,6.94-1.48,1.98-3.83,3.14-6.28,3.14Zm4.84-22.97c-1.93,0-3.89,.66-5.36,1.74-2.92,2.46-4.74,5.93-5.1,9.76-.4,2.19-.22,4.41,.51,6.47,.73,2.01,2.42,3.5,4.51,3.98,2.3,.22,4.65-.81,6.07-2.71,1.45-1.99,2.53-4.2,3.22-6.57l-.42-.79c3.05-1.63,4.2-5.44,2.58-8.49-.31-.57-.7-1.09-1.17-1.55-1.33-1.28-3.07-1.83-4.83-1.83Z" fill="#002346"></path>
  </g>
  <path d="M461.02,143.31c.11,1.6-.19,3.2-.87,4.65-.62,1.55-1.03,3.18-1.23,4.84-.08,.96,.06,1.92,.42,2.81,.72,1.97,2.9,2.98,4.86,2.26,0,0,.01,0,.02,0,.92-.29,1.78-.75,2.53-1.36,1.26-1.07,2.28-2.39,3-3.88,.62-1.42,1.08-2.91,1.35-4.44,.08,.42,.08,.86,0,1.28-.13,1.16-.45,2.29-.93,3.36-.71,1.6-1.76,3.03-3.08,4.18-.79,.68-1.71,1.2-2.71,1.52-1.11,.38-2.33,.33-3.41-.13-1.06-.51-1.89-1.41-2.31-2.51-.39-.99-.54-2.06-.43-3.12,.24-1.73,.72-3.41,1.44-5,.44-1.05,.8-2.13,1.07-3.24,.07-.41,.16-.81,.28-1.21Z" fill="#002346"></path>
  <g opacity=".5">
    <path d="M549.67,233.89c0,2.08-1.67,3.76-3.75,3.77s-3.76-1.67-3.77-3.75c0-2.08,1.67-3.76,3.75-3.77,0,0,0,0,0,0h0c2.07,0,3.75,1.67,3.76,3.74h0Z" fill="#fff"></path>
  </g>
  <g opacity=".5">
    <path d="M557.17,250c0,2.07-1.68,3.75-3.75,3.75s-3.75-1.68-3.75-3.75,1.68-3.75,3.75-3.75h0c2.07,0,3.75,1.68,3.75,3.75Z" fill="#fff"></path>
  </g>
  <g opacity=".5">
    <circle cx="562.42" cy="265.68" r="3.75" fill="#fff"></circle>
  </g>
  <g opacity=".2">
    <polygon points="553.17 301.92 614.67 273.33 611.39 267.7 553.17 301.92"></polygon>
  </g>
  <g>
    <path d="M618.43,310.66s125.69,24.64,128.33,38.53-2.75,136.61-2.75,136.61l-36.31,.73-3.94-106.91-150.59-39.39,65.26-29.57Z" fill="#c4cbde"></path>
    <path d="M707.22,487.04l-3.94-107.03-151.6-39.65,66.69-30.22,.16,.03c5.15,1.01,126.05,24.87,128.73,38.93,2.62,13.79-2.52,131.71-2.74,136.73l-.02,.47-37.27,.75Zm-152.56-146.94l149.58,39.13,3.94,106.79,35.35-.71c.36-8.32,5.26-122.78,2.74-136.03-2.04-10.71-84.38-29.59-127.78-38.1l-63.83,28.92Z" fill="#002346"></path>
  </g>
  <path d="M710.18,188.29v-.08c6.36-2.62,12.57-5.58,18.61-8.86,8.13-4.91,7.75-5.64,7-6.5-2-2.29-14.7,8.13-13.25,4.26,1.45-3.87,17-10.83,14.9-13.19-2.82-3-16,8.13-17.13,8.95s-2.45-.81-1.35-1.53c1.6-1,18-12.29,15.31-15.27-1.52-1.65-4.23,1.36-4.23,1.36,0,0-14.62,11.65-15.86,10.2s7.08-8.6,10.08-10.84c3-2.24,3.1-4.47,1-5-1.35-.35-10.7,6.19-13.54,8.44-2.84,2.25-10.76,8.56-9.42,2.3s0-11.57-1.36-12.76c-1.36-1.19-3.5,.27-3.07,2.21,.26,2.15,.22,4.32-.12,6.45-.21,1.74-.71,3.43-1.48,5-.89,1.82-1.73,3.31-2.48,4.57-1.23,1.99-1.63,4.39-1.11,6.68,1,3.34,13.17,15.18,13.17,15.18l4.33-1.57Z" fill="#ff725e"></path>
  <g>
    <path d="M710.18,188.29v-.08c6.36-2.62,12.57-5.58,18.61-8.86,8.13-4.91,7.75-5.64,7-6.5-2-2.29-14.7,8.13-13.25,4.26,1.45-3.87,17-10.83,14.9-13.19-2.82-3-16,8.13-17.13,8.95s-2.45-.81-1.35-1.53c1.6-1,18-12.29,15.31-15.27-1.52-1.65-4.23,1.36-4.23,1.36,0,0-14.62,11.65-15.86,10.2s7.08-8.6,10.08-10.84c3-2.24,3.1-4.47,1-5-1.35-.35-10.7,6.19-13.54,8.44-2.84,2.25-10.76,8.56-9.42,2.3s0-11.57-1.36-12.76c-1.36-1.19-3.5,.27-3.07,2.21,.26,2.15,.22,4.32-.12,6.45-.21,1.74-.71,3.43-1.48,5-.89,1.82-1.73,3.31-2.48,4.57-1.23,1.99-1.63,4.39-1.11,6.68,1,3.34,13.17,15.18,13.17,15.18l4.33-1.57Z" fill="#f2b3c1"></path>
    <path d="M705.73,190.43l-.22-.22c-.5-.49-12.27-11.97-13.3-15.4-.56-2.46-.15-4.97,1.16-7.09,.93-1.56,1.71-3,2.46-4.53,.75-1.52,1.23-3.15,1.43-4.84,.34-2.11,.37-4.23,.12-6.33-.25-1.1,.25-2.27,1.24-2.86,.89-.52,1.9-.44,2.65,.21,1.5,1.31,2.9,6.78,1.52,13.24-.23,1.07-.17,1.8,.15,2,.9,.56,3.73-1.04,8.41-4.75,1.24-.98,12.15-9.07,14.03-8.58,.98,.25,1.61,.83,1.77,1.64,.25,1.27-.69,2.82-2.6,4.24-4.57,3.42-10.46,9.15-10,10.12,1.08,.23,8.58-5.02,15.17-10.27,.13-.15,1.8-1.95,3.42-1.96,.55-.03,1.09,.22,1.49,.66,.35,.38,.49,.89,.41,1.46-.63,4.51-15.67,14.48-15.82,14.57-.17,.11-.18,.23-.18,.3,.01,.18,.17,.38,.37,.48,.2,.09,.4,.07,.6-.08,.12-.09,.38-.3,.76-.59,9.69-7.71,15.1-10.35,17.03-8.29,.26,.29,.37,.64,.32,1.02-.2,1.49-2.87,3.35-7.25,6.24-3.4,2.24-7.24,4.78-7.87,6.44-.03,.08-.05,.14-.06,.19,.72-.1,2.83-1.29,4.4-2.18,4.54-2.57,7.61-4.16,8.82-2.77,.21,.24,.57,.65,.48,1.25-.16,1-1.45,2.3-7.59,6.01-5.95,3.24-12.12,6.18-18.37,8.77v.02l-.33,.2-4.62,1.68Zm-5.91-40.6c-.23,0-.47,.07-.69,.2-.48,.28-.97,.93-.77,1.83,.27,2.24,.23,4.46-.11,6.64-.21,1.78-.72,3.52-1.53,5.14-.76,1.55-1.55,3.02-2.5,4.61-1.17,1.9-1.55,4.14-1.05,6.31,.76,2.55,9.29,11.28,12.81,14.71l3.71-1.34v-.06l.31-.13c6.32-2.6,12.56-5.58,18.56-8.84,1.7-1.03,6.93-4.18,7.1-5.3,.02-.11-.04-.2-.24-.44-.76-.87-5.03,1.54-7.57,2.99-3.38,1.91-4.9,2.73-5.63,2.11-.32-.27-.37-.73-.14-1.34,.74-1.97,4.39-4.38,8.25-6.93,3.12-2.06,6.66-4.39,6.81-5.54,.01-.09,0-.15-.06-.22-.81-.86-3.94-.93-15.67,8.4-.39,.31-.67,.53-.79,.62-.49,.36-1.08,.42-1.61,.17-.53-.25-.9-.76-.94-1.31-.04-.49,.2-.93,.64-1.22,2.6-1.63,14.89-10.41,15.37-13.87,.05-.37-.06-.54-.16-.65-.21-.23-.45-.34-.74-.33-1.01,0-2.32,1.22-2.75,1.69-6.9,5.51-15.33,11.69-16.61,10.19-.13-.16-.28-.43-.24-.86,.29-2.62,8.84-9.54,10.4-10.71,1.84-1.37,2.35-2.57,2.21-3.24-.11-.53-.62-.77-1.04-.87-1.2-.12-9.63,5.6-13.11,8.35-4.01,3.18-7.9,5.93-9.62,4.86-.74-.46-.94-1.46-.6-3.06,1.33-6.21-.07-11.29-1.2-12.28-.23-.2-.51-.31-.79-.31Zm23.11,27.78h0Z" fill="#002346"></path>
  </g>
  <g>
    <path d="M638.63,234.91c6.67-1.41,66.67-41.77,66.67-41.77l-20.58-19.66-51.39,29s-58.5-2.01-76.47-3.91c-4.67-1.72-9.6-2.81-14.68-3.19h-.57c-15.67-1.02-46.47,12.7-55.53,20.64-1.62-1.48-51.12,37.98-71.4,54.53-5.65,4.61-8.92,11.51-8.91,18.8,0,13.39,10.85,24.26,24.24,24.28h59.5v-30.16h-38.72l49.64-32.71c18.42,33.34,46.25,83.06,52.74,91.03l80.51-35.8-41.26-70.86c14.45,.33,41.38,.79,46.21-.23Z" fill="#5b66e6"></path>
    <path d="M553.03,342.41l-.24-.3c-6.29-7.72-31.98-53.44-52.53-90.63l-47.79,31.49h37.55v31.16h-60c-13.64-.02-24.74-11.14-24.74-24.78-.01-7.47,3.3-14.47,9.09-19.19,10.65-8.7,27.98-22.59,42.7-34.04,22.91-17.81,27.61-20.52,28.86-20.64,9-7.71,39.43-21.67,55.72-20.61h.54c5.07,.38,10.04,1.45,14.79,3.2,17.39,1.83,73.02,3.78,76.23,3.9l51.59-29.11,21.3,20.35-.52,.35c-2.45,1.65-60.16,40.43-66.85,41.84h0c-4.73,1-30.09,.6-45.43,.26l41.09,70.57-81.37,36.18Zm-52.42-92.36l.26,.47c16.65,30.14,45.42,81.65,52.46,90.66l79.65-35.42-41.43-71.15,.89,.02c15.19,.35,41.37,.78,46.1-.22h0c6.17-1.31,60.09-37.4,65.98-41.35l-19.86-18.97-51.19,28.89h-.14c-.59-.02-58.72-2.04-76.51-3.92l-.12-.03c-4.69-1.73-9.58-2.79-14.54-3.16h-.53c-14.98-.97-45.8,12.27-55.2,20.52l-.34,.29-.22-.2c-3.69,.74-47.22,35.15-70.85,54.45-5.56,4.53-8.74,11.24-8.73,18.41,0,13.09,10.65,23.76,23.74,23.78h59v-29.16h-39.89l51.48-33.92Z" fill="#002346"></path>
  </g>
  <path d="M498.29,310.29v-.09c6.8,1.04,13.64,1.71,20.51,2,9.49,0,9.56-.84,9.37-1.95-.5-3-16.76-.66-13.55-3.18,3.21-2.52,20.21-.54,19.56-3.63-.85-4.07-17.83-1.29-19.29-1.15-1.46,.14-1.68-2-.37-2,1.9,0,21.79-1.22,21-5.19-.45-2.2-4.32-1-4.32-1,0,0-18.54,2.45-18.85,.57-.31-1.88,10.52-3.73,14.21-4.07s5-2.22,3.47-3.71c-1-1-12.37-.22-16,.22-3.63,.44-13.63,1.8-9.25-2.87,4.38-4.67,6-9.92,5.41-11.64-.45-1.01-1.63-1.46-2.64-1.01-.55,.25-.96,.73-1.12,1.32-.9,1.95-2.05,3.78-3.44,5.42-1.07,1.37-2.36,2.55-3.82,3.49-1.71,1.1-3.2,2-4.49,2.65-2.08,1.08-3.65,2.92-4.39,5.14-.84,3.42,3.46,19.8,3.46,19.8l4.54,.88Z" fill="#ff725e"></path>
  <g>
    <path d="M498.29,310.29v-.09c6.8,1.04,13.64,1.71,20.51,2,9.49,0,9.56-.84,9.37-1.95-.5-3-16.76-.66-13.55-3.18,3.21-2.52,20.21-.54,19.56-3.63-.85-4.07-17.83-1.29-19.29-1.15-1.46,.14-1.68-2-.37-2,1.9,0,21.79-1.22,21-5.19-.45-2.2-4.32-1-4.32-1,0,0-18.54,2.45-18.85,.57-.31-1.88,10.52-3.73,14.21-4.07s5-2.22,3.47-3.71c-1-1-12.37-.22-16,.22-3.63,.44-13.63,1.8-9.25-2.87,4.38-4.67,6-9.92,5.41-11.64-.45-1.01-1.63-1.46-2.64-1.01-.55,.25-.96,.73-1.12,1.32-.9,1.95-2.05,3.78-3.44,5.42-1.07,1.37-2.36,2.55-3.82,3.49-1.71,1.1-3.2,2-4.49,2.65-2.08,1.08-3.65,2.92-4.39,5.14-.84,3.42,3.46,19.8,3.46,19.8l4.54,.88Z" fill="#f2b3c1"></path>
    <path d="M518.79,312.7c-6.68-.28-13.41-.93-20.01-1.92v.02l-.6-.03-4.85-.94-.08-.3c-.18-.67-4.32-16.54-3.46-20.05,.8-2.39,2.44-4.32,4.65-5.46,1.16-.58,2.57-1.42,4.45-2.63,1.42-.91,2.66-2.05,3.7-3.38,1.37-1.62,2.5-3.41,3.38-5.32,.16-.65,.67-1.25,1.37-1.57,.61-.27,1.29-.29,1.91-.05,.62,.24,1.12,.71,1.39,1.31,.66,1.92-.94,7.32-5.5,12.19-.75,.8-1.08,1.45-.91,1.78,.69,1.35,7.22,.55,9.37,.29l.37-.04c.15-.02,14.94-1.55,16.41-.08,.7,.68,.94,1.49,.67,2.26-.43,1.23-2.09,2.09-4.44,2.3-5.47,.5-13.66,2.43-13.76,3.49,.8,.75,9.94,.12,18.29-.99,.18-.06,2.54-.76,3.94,.07,.49,.29,.82,.75,.94,1.33,.1,.52-.04,1.03-.42,1.49-2.93,3.57-20.9,4.3-21.07,4.3-.21,0-.28,.09-.31,.16-.09,.17-.06,.42,.06,.6,.12,.19,.32,.27,.58,.24,.15-.01,.46-.06,.91-.12,12.32-1.66,18.33-1.13,18.92,1.66,.08,.37,0,.73-.24,1.03-.94,1.21-4.22,1.41-9.49,1.64-4.05,.18-8.64,.38-10.01,1.45-.06,.04-.1,.08-.13,.11,.69,.28,3.07,.34,4.85,.39,5.25,.15,8.72,.38,9.02,2.2,.05,.31,.14,.84-.25,1.3-.64,.76-2.47,1.23-9.62,1.23Zm-21.01-3.08l.58,.09c6.75,1.03,13.64,1.71,20.46,1.99,1.99,0,8.09,0,8.83-.88,.07-.08,.08-.19,.02-.49-.19-1.15-5.12-1.28-8.06-1.37-3.86-.11-5.58-.19-5.88-1.09-.13-.4,.06-.8,.57-1.2,1.62-1.27,5.98-1.46,10.58-1.67,3.58-.16,8.04-.35,8.75-1.26,.05-.07,.07-.12,.05-.21-.25-1.19-2.89-2.89-17.8-.88-.46,.06-.79,.11-.95,.12-.63,.06-1.18-.19-1.5-.68-.33-.49-.37-1.14-.11-1.63,.23-.43,.67-.68,1.19-.68,2.43,0,18-1.13,20.3-3.94,.24-.3,.24-.52,.21-.66-.06-.3-.21-.51-.46-.67-.86-.51-2.61-.14-3.22,.05-8.76,1.17-19.17,2.12-19.49,.17-.03-.2-.02-.52,.25-.86,1.56-2.01,11.68-3.54,14.41-3.79,2.3-.21,3.37-1.02,3.59-1.64,.17-.49-.14-.93-.43-1.21-.94-.71-11.03-.2-15.59,.36l-.36,.04c-4.54,.56-9.46,.99-10.38-.83-.39-.78-.04-1.73,1.07-2.92,4.39-4.67,5.78-9.73,5.3-11.14-.15-.32-.44-.6-.82-.75-.37-.14-.78-.13-1.15,.03-.42,.19-.72,.55-.84,.99-.94,2.08-2.13,3.94-3.54,5.62-1.09,1.4-2.42,2.62-3.93,3.59-1.91,1.23-3.35,2.08-4.53,2.68-1.97,1.02-3.44,2.75-4.14,4.85-.64,2.61,2.16,14.46,3.39,19.21l3.64,.71v-.07Z" fill="#002346"></path>
  </g>
  <g>
    <path d="M486.18,283.45l.78,27.92c.12,1.86,1.57,3.36,3.43,3.54h.18c2.1,.31,4.09-1.07,4.51-3.16,.02-.2,.02-.4,0-.6l-1-27.94c-.12-1.76-1.44-3.2-3.18-3.48h0c-2.08-.46-4.16,.79-4.72,2.85-.03,.29-.03,.58,0,.87Z" fill="#c4cbde"></path>
    <path d="M491.16,315.45c-.22,0-.44-.02-.67-.05h-.11c-2.16-.2-3.79-1.88-3.93-4l-.78-27.92c-.04-.32-.04-.65,0-.97,.65-2.39,2.98-3.8,5.32-3.28,1.96,.31,3.44,1.93,3.57,3.93l1,27.96c.02,.21,.02,.43,0,.66-.44,2.18-2.31,3.67-4.41,3.67Zm-.59-1.04c1.92,.27,3.65-.93,4.02-2.76,0-.11,0-.29,0-.46l-1-27.96c-.1-1.52-1.24-2.76-2.76-3-1.85-.4-3.67,.69-4.16,2.49-.02,.18-.02,.43,.01,.68v.05s.78,27.92,.78,27.92c.1,1.61,1.36,2.9,2.98,3.06h.13Z" fill="#002346"></path>
  </g>
  <g>
    <path d="M722.64,301.34l-47.14,52.16-26.33-18.58,39.45-47.08c.84-1-.31-2.43-1.47-1.82l-109.06,57.63c-11.03,5.69-24.58,1.97-31.16-8.55h0c-6.98-11.17-3.59-25.89,7.58-32.88,.76-.47,1.55-.9,2.35-1.29l123.68-59.13c17.95-8.61,39.48-3.38,51.48,12.51h0c11.69,15.49,5.52,31.87-9.38,47.03Z" fill="#c4cbde"></path>
    <path d="M675.57,354.16l-27.14-19.15,39.8-47.5c.27-.32,.18-.66,0-.88-.17-.21-.49-.37-.86-.18l-109.06,57.63c-11.18,5.77-25.15,1.93-31.82-8.73-7.11-11.39-3.64-26.45,7.74-33.57,.75-.46,1.55-.91,2.4-1.32l123.68-59.13c18.09-8.68,40-3.35,52.09,12.66,10.79,14.3,7.62,30.34-9.42,47.67l-47.43,52.48Zm-25.67-19.34l25.52,18.01,46.86-51.85c16.64-16.93,19.78-32.54,9.34-46.38-11.81-15.63-33.2-20.83-50.86-12.36l-123.68,59.13c-.81,.39-1.58,.82-2.3,1.26-10.91,6.83-14.24,21.27-7.42,32.19,6.39,10.22,19.79,13.9,30.51,8.37l109.05-57.63c.74-.39,1.58-.21,2.11,.43,.52,.65,.52,1.51-.02,2.15l-39.1,46.67Z" fill="#002346"></path>
  </g>
  <g>
    <polygon points="642.5 342.29 639.5 346.29 680.24 382.88 683.36 379.18 642.5 342.29" fill="#fff"></polygon>
    <path d="M680.29,383.59l-41.46-37.24,3.6-4.8,41.63,37.58-3.76,4.46Zm-40.11-37.37l40.02,35.93,2.48-2.94-40.09-36.19-2.4,3.2Z" fill="#002346"></path>
  </g>
  <g>
    <path d="M695.86,332.27l-29.88-18.96-22.25,27.27c-.23,.22-.47,.44-.7,.66-.51,.48-.5,1.3,.02,1.77l40.11,35.96c.07,.06,.18,0,.17-.09-.78-8.61-2.62-17.06-5.46-25.18l17.98-21.43Z" fill="#5b66e6"></path>
    <path d="M683.24,379.49c-.15,0-.29-.05-.4-.15l-40.11-35.96c-.35-.32-.56-.77-.57-1.25,0-.48,.19-.94,.54-1.26l.7-.66,22.49-27.56,30.74,19.5-18.16,21.65c2.81,8.11,4.62,16.53,5.39,25.03,.02,.25-.11,.48-.33,.59-.09,.04-.18,.06-.27,.06Zm-17.14-65.52l-21.97,26.92-.74,.71c-.15,.14-.22,.32-.22,.52s.09,.38,.23,.52l39.36,35.28c-.82-8.17-2.61-16.26-5.34-24.05l-.09-.27,17.8-21.21-29.02-18.42Z" fill="#002346"></path>
  </g>
  <g>
    <polygon points="711.91 519.25 712.36 524.6 766.98 521.79 766.58 516.97 711.91 519.25" fill="#fff"></polygon>
    <path d="M711.9,525.12l-.53-6.35,55.67-2.32,.49,5.81-55.63,2.86Zm.55-5.4l.37,4.35,53.63-2.76-.33-3.83-53.67,2.24Z" fill="#002346"></path>
  </g>
  <g>
    <path d="M766.46,516.87c-6.53-5.47-13.69-10.09-21.3-13.81l.99-27.29-41.42,6.58,7.24,34.72c-.02,.72-.05,1.44-.06,2.17l54.52-2.27c.05,0,.07-.07,.03-.1Z" fill="#5b66e6"></path>
    <path d="M711.4,519.77v-.53c.01-.56,.03-1.13,.05-1.69v-.43s-7.32-35.18-7.32-35.18l42.54-6.76-1,27.57c7.57,3.73,14.68,8.34,21.11,13.73l.26,.22-.2,.71-.39,.06-55.05,2.3Zm-6.08-37l7.14,34.27-.02,.55c-.01,.38-.02,.76-.03,1.14l52.84-2.2c-6.22-5.09-13.05-9.46-20.32-13.01l-.29-.14,.98-27-40.3,6.4Zm60.82,34.49s0,0,0,0h0s0,0,0,0Z" fill="#002346"></path>
  </g>
  <rect x="549.14" y="335.05" width="1.5" height="1" transform="translate(-93 294.81) rotate(-27.77)" fill="#fff"></rect>
  <rect x="703.22" y="267.43" width="1" height="1.5" transform="translate(-45.64 343.03) rotate(-26.57)" fill="#fff"></rect>
  <path d="M559.82,285.45c-2.25,0-4.39-1.21-5.54-3.31l-27.37-50.52c-.1-.19-.2-.39-.28-.6-.65-1.55-.65-3.27,0-4.82,.64-1.56,1.85-2.77,3.41-3.41l37.22-15.75c.25-.11,.55,.01,.66,.27s-.01,.55-.27,.66l-37.22,15.75c-1.31,.54-2.33,1.56-2.87,2.87-.54,1.31-.54,2.75,0,4.06,.07,.17,.15,.34,.24,.5l27.37,50.52c1.32,2.44,4.24,3.45,6.78,2.35l45.25-19.6c.25-.11,.55,0,.66,.26,.11,.25,0,.55-.26,.66l-45.25,19.6c-.82,.35-1.68,.52-2.52,.52Z" fill="#002346"></path>
  <path d="M554.58,229.98c-.2,0-.38-.12-.46-.31-.11-.25,.01-.55,.27-.65l17.97-7.51c.26-.11,.55,.01,.65,.27,.11,.25-.01,.55-.27,.65l-17.97,7.51c-.06,.03-.13,.04-.19,.04Z" fill="#002346"></path>
  <path d="M563.7,245.8c-.2,0-.38-.12-.46-.31-.11-.25,.01-.55,.27-.65l17.96-7.51c.26-.11,.55,.01,.65,.27,.11,.25-.01,.55-.27,.65l-17.96,7.51c-.06,.03-.13,.04-.19,.04Z" fill="#002346"></path>
  <path d="M572.81,261.61c-.2,0-.38-.12-.46-.31-.11-.25,.01-.55,.27-.65l17.97-7.5c.26-.11,.55,.01,.65,.27,.11,.25-.01,.55-.27,.65l-17.97,7.5c-.06,.03-.13,.04-.19,.04Z" fill="#002346"></path>
  <g opacity=".2">
    <path d="M509.9,327.23c-.18,0-.35-.1-.44-.27-.13-.24-.03-.55,.21-.67l23.62-12.36c.24-.13,.55-.03,.67,.21,.13,.24,.03,.55-.21,.67l-23.62,12.36c-.07,.04-.15,.06-.23,.06Z"></path>
  </g>
  <g opacity=".2">
    <path d="M531.31,340.48c-4.05,0-7.34-3.29-7.34-7.34s3.29-7.34,7.34-7.34,7.34,3.29,7.34,7.34-3.29,7.34-7.34,7.34Zm0-13.68c-3.5,0-6.34,2.84-6.34,6.34s2.84,6.34,6.34,6.34,6.34-2.84,6.34-6.34-2.84-6.34-6.34-6.34Z"></path>
  </g>
  <g opacity=".2">
    <circle cx="503.71" cy="151.11" r="52.92" transform="translate(40.68 400.43) rotate(-45)" fill="#5b66e6"></circle>
  </g>
  <path d="M503.72,204.74c-29.69,.07-53.8-23.94-53.87-53.63-.07-29.69,23.94-53.8,53.63-53.87,29.69-.07,53.8,23.94,53.87,53.63,.05,21.51-12.74,40.99-32.5,49.49-6.67,2.87-13.86,4.37-21.13,4.38Zm0-105.9c-28.93-.06-52.43,23.36-52.49,52.29-.05,28.93,23.36,52.43,52.29,52.49,28.93,.06,52.43-23.36,52.49-52.29,.04-21.45-12.99-40.75-32.9-48.73-6.17-2.49-12.76-3.78-19.41-3.8l.02,.04Z" fill="#002346"></path>
  <g>
    <path d="M501.64,207.45c-.6-2.23,.26-4.6,2.15-5.92,3.31-2.71,29.38-9.21,29.38-9.21,0,0,7.15-1.06,9,3l-40.53,12.13Z" fill="#5b66e6"></path>
    <path d="M501.29,208.07l-.13-.5c-.66-2.42,.29-5.02,2.35-6.46,3.33-2.73,28.48-9.02,29.55-9.29,.35-.06,7.59-1.08,9.58,3.28l.24,.52-41.57,12.44Zm33.9-15.38c-1.12,0-1.92,.11-1.94,.12-8.93,2.23-26.59,7.02-29.14,9.1-1.6,1.12-2.39,3.03-2.09,4.9l39.42-11.8c-1.3-1.96-4.26-2.32-6.25-2.32Z" fill="#002346"></path>
  </g>
  <g>
    <rect x="197.7" y="458.43" width="8.69" height="14.6" fill="#5b66e6"></rect>
    <path d="M206.89,473.53h-9.69v-15.6h9.69v15.6Zm-8.69-1h7.69v-13.6h-7.69v13.6Z" fill="#002346"></path>
  </g>
  <g>
    <circle cx="245.84" cy="250.64" r="53.24" fill="#5b66e6"></circle>
    <path d="M245.83,304.38c-29.63,0-53.74-24.11-53.74-53.74s24.11-53.74,53.74-53.74,53.74,24.11,53.74,53.74-24.11,53.74-53.74,53.74Zm0-106.48c-29.08,0-52.74,23.66-52.74,52.74s23.66,52.74,52.74,52.74,52.74-23.66,52.74-52.74-23.66-52.74-52.74-52.74Z" fill="#002346"></path>
  </g>
  <g opacity=".2">
    <path d="M263.19,230.27c.12-4.79,4.1-8.57,8.89-8.44s8.57,4.1,8.44,8.89c-.12,4.78-4.09,8.56-8.87,8.45h0c-4.79-.12-8.58-4.1-8.46-8.89Z"></path>
  </g>
  <g opacity=".2">
    <path d="M280.54,250.61c.07-2.79,2.39-5,5.18-4.94,2.79,.07,5,2.39,4.94,5.18-.07,2.77-2.35,4.97-5.12,4.94h0c-2.76-.04-4.97-2.31-4.93-5.07,0-.02,0-.05,0-.07l-.07-.04Z"></path>
  </g>
  <g opacity=".2">
    <path d="M273.76,266.04c1.03-.11,1.96,.64,2.07,1.67,.11,1.03-.64,1.96-1.67,2.07-1.03,.11-1.96-.64-2.07-1.67-.01-.13-.01-.27,0-.4,.09-.88,.79-1.58,1.67-1.67Z"></path>
  </g>
  <g>
    <path d="M698.3,213.43l.72,1.37c.84,1.54,2.11,2.81,3.65,3.65l1.36,.75-1.36,.76c-1.54,.84-2.81,2.1-3.65,3.64l-.75,1.36-.75-1.36c-.84-1.54-2.1-2.81-3.64-3.65l-1.36-.76,1.36-.75c1.54-.84,2.8-2.11,3.64-3.65l.78-1.36Z" fill="#5b66e6"></path>
    <path d="M698.27,225.99l-1.19-2.15c-.79-1.46-1.98-2.65-3.44-3.45l-2.15-1.2,2.15-1.19c1.46-.8,2.65-1.99,3.44-3.45l1.24-2.16,1.14,2.18c.79,1.45,1.99,2.65,3.45,3.44l2.15,1.19-2.15,1.2c-1.46,.8-2.66,1.99-3.46,3.44l-1.19,2.16Zm-4.72-6.8l.57,.32c1.62,.89,2.95,2.22,3.84,3.85l.31,.56,.31-.57c.89-1.62,2.22-2.95,3.85-3.84l.57-.32-.57-.31c-1.63-.89-2.96-2.22-3.85-3.85l-.3-.57-.33,.57c-.88,1.62-2.21,2.95-3.83,3.84l-.57,.31Z" fill="#002346"></path>
  </g>
  <g>
    <path d="M104.53,416.98l.76,1.37c.84,1.54,2.11,2.8,3.65,3.64l1.36,.75-1.36,.76c-1.54,.84-2.81,2.11-3.65,3.65l-.76,1.36-.75-1.36c-.84-1.54-2.11-2.8-3.64-3.65l-1.36-.76,1.36-.75c1.53-.84,2.8-2.11,3.64-3.64l.75-1.37Z" fill="#5b66e6"></path>
    <path d="M104.52,429.54l-1.18-2.15c-.8-1.46-1.99-2.65-3.44-3.45l-2.15-1.2,2.15-1.19c1.45-.8,2.64-1.99,3.44-3.44l1.19-2.16,1.2,2.16c.8,1.46,1.99,2.65,3.45,3.44l2.15,1.19-2.15,1.2c-1.46,.8-2.66,1.99-3.46,3.45l-1.2,2.15Zm-4.72-6.8l.57,.32c1.62,.89,2.94,2.22,3.83,3.85l.31,.57,.32-.57c.89-1.62,2.22-2.96,3.85-3.84l.57-.32-.57-.31c-1.63-.88-2.96-2.21-3.85-3.84l-.32-.57-.31,.57c-.89,1.62-2.22,2.95-3.84,3.84l-.57,.31Z" fill="#002346"></path>
  </g>
  <g>
    <path d="M341.28,351.67l1.71,3.07c1.9,3.47,4.75,6.34,8.21,8.26l3.16,1.71-3.16,1.67c-3.47,1.91-6.32,4.77-8.21,8.26l-1.71,3.07-1.53-3.47c-1.89-3.48-4.74-6.35-8.21-8.26l-3.16-1.67,3.16-1.71c3.46-1.92,6.31-4.78,8.21-8.26l1.53-2.66Z" fill="#5b66e6"></path>
    <path d="M341.23,378.81l-1.94-4.39c-1.83-3.37-4.6-6.15-7.99-8.02l-3.98-2.1,3.98-2.16c3.38-1.87,6.15-4.66,8.01-8.06l1.98-3.43,2.14,3.84c1.86,3.4,4.63,6.19,8.02,8.06l3.97,2.16-3.98,2.1c-3.39,1.86-6.16,4.65-8,8.05l-2.21,3.95Zm-11.79-14.52l2.33,1.23c3.57,1.96,6.48,4.88,8.42,8.46l1.15,2.59,1.23-2.19c1.94-3.57,4.84-6.49,8.41-8.45l2.34-1.24-2.34-1.27c-3.55-1.97-6.46-4.89-8.41-8.45l-1.28-2.29-1.09,1.9c-1.94,3.55-4.85,6.47-8.4,8.44l-2.34,1.27Z" fill="#002346"></path>
  </g>
  <g>
    <path d="M641.92,403.42l1.41,2.56c1.57,2.85,3.92,5.2,6.79,6.75l2.52,1.37-2.52,1.41c-2.87,1.54-5.23,3.89-6.79,6.75l-1.41,2.52-1.37-2.52c-1.57-2.84-3.91-5.18-6.75-6.75l-2.56-1.41,2.56-1.37c2.85-1.55,5.2-3.9,6.75-6.75l1.37-2.56Z" fill="#5b66e6"></path>
    <path d="M641.92,425.81l-1.81-3.32c-1.52-2.76-3.79-5.03-6.55-6.55l-3.36-1.85,3.37-1.81c2.77-1.51,5.04-3.77,6.55-6.55l1.81-3.37,1.85,3.37c1.53,2.78,3.8,5.04,6.59,6.55l3.32,1.81-3.31,1.85c-2.8,1.5-5.08,3.77-6.59,6.55l-1.85,3.32Zm-9.63-11.71l1.75,.97c2.93,1.61,5.33,4.02,6.95,6.95l.94,1.73,.97-1.73c1.61-2.95,4.02-5.35,6.99-6.95l1.72-.96-1.73-.94c-2.95-1.6-5.37-4-6.99-6.95l-.97-1.75-.94,1.75c-1.6,2.95-4.01,5.35-6.95,6.95l-1.75,.94Z" fill="#002346"></path>
  </g>
  <g>
    <path d="M291.14,166.3l.88,1.62c1,1.84,2.51,3.36,4.34,4.39l1.64,.86-1.64,.91c-1.83,1.01-3.33,2.53-4.34,4.36l-.88,1.62-.91-1.62c-.99-1.85-2.51-3.37-4.36-4.36l-1.62-.91,1.62-.86c1.84-1.02,3.36-2.54,4.36-4.39l.91-1.62Z" fill="#5b66e6"></path>
    <path d="M291.15,181.09l-1.35-2.41c-.95-1.78-2.39-3.22-4.16-4.17l-2.43-1.36,2.43-1.29c1.75-.97,3.19-2.42,4.16-4.18l1.35-2.42,1.32,2.42c.96,1.76,2.39,3.21,4.14,4.19l2.46,1.28-2.46,1.36c-1.75,.97-3.18,2.41-4.14,4.16l-1.31,2.42Zm-5.85-7.91l.82,.46c1.94,1.04,3.52,2.62,4.56,4.56l.46,.82,.45-.82c1.05-1.92,2.62-3.5,4.54-4.56l.83-.46-.82-.43c-1.93-1.08-3.5-2.66-4.55-4.59l-.45-.82-.46,.83c-1.05,1.93-2.63,3.52-4.56,4.58l-.82,.43Z" fill="#002346"></path>
  </g>
  <g>
    <path d="M403.51,89.09l1.36,2.37c1.46,2.65,3.65,4.84,6.3,6.3l2.37,1.36-2.37,1.36c-2.66,1.45-4.85,3.64-6.3,6.3l-1.36,2.36-1.36-2.34c-1.38-2.7-3.51-4.94-6.13-6.46l-2.36-1.36,2.36-1.36c2.66-1.45,4.85-3.64,6.3-6.3l1.19-2.23Z" fill="#5b66e6"></path>
    <path d="M403.51,110.13l-1.79-3.09c-1.35-2.64-3.4-4.8-5.95-6.28l-3.11-1.79,3.11-1.79c2.59-1.42,4.7-3.53,6.11-6.11l1.61-3.02,1.81,3.15c1.42,2.58,3.53,4.69,6.11,6.11l3.13,1.8-3.13,1.79c-2.59,1.42-4.7,3.53-6.11,6.11l-1.8,3.12Zm-8.85-11.16l1.61,.93c2.71,1.57,4.9,3.88,6.33,6.67l.91,1.57,.93-1.61c1.5-2.74,3.75-4.99,6.49-6.49l1.61-.92-1.61-.93c-2.73-1.5-4.98-3.75-6.49-6.49l-.91-1.58-.76,1.43c-1.51,2.75-3.75,5-6.5,6.5l-1.6,.92Z" fill="#002346"></path>
  </g>
  <g>
    <path d="M615.11,543l1.29,2.37c1.45,2.66,3.64,4.85,6.3,6.3l2.37,1.36-2.37,1.3c-2.66,1.45-4.85,3.64-6.3,6.3l-1.29,2.36-1.36-2.36c-1.46-2.66-3.64-4.84-6.3-6.3l-2.37-1.3,2.37-1.36c2.66-1.45,4.85-3.64,6.3-6.3l1.36-2.37Z" fill="#5b66e6"></path>
    <path d="M615.13,564.01l-1.8-3.13c-1.42-2.59-3.53-4.7-6.11-6.11l-3.15-1.73,3.14-1.8c2.59-1.41,4.7-3.52,6.11-6.11l1.81-3.15,1.72,3.15c1.41,2.58,3.52,4.69,6.1,6.1l3.15,1.81-3.15,1.73c-2.58,1.41-4.69,3.52-6.1,6.1l-1.72,3.14Zm-9.02-10.99l1.59,.87c2.75,1.51,4.99,3.75,6.5,6.5l.91,1.58,.86-1.58c1.5-2.75,3.75-5,6.5-6.5l1.59-.87-1.6-.92c-2.74-1.49-4.99-3.74-6.49-6.49l-.86-1.58-.91,1.59c-1.5,2.74-3.74,4.99-6.49,6.49l-1.59,.91Z" fill="#002346"></path>
  </g>
  <g>
    <path d="M681.8,174.8l20.9,20.43c1.4,1.33,3.52,1.55,5.16,.53l.14-.09c1.69-.98,2.26-3.14,1.29-4.82-.06-.11-.13-.21-.21-.32-.13-.17-.27-.33-.42-.48l-21.06-20.34c-1.31-1.24-3.27-1.51-4.87-.66h0c-1.76,.84-2.51,2.95-1.67,4.71,.05,.1,.1,.2,.16,.29,.16,.27,.36,.53,.58,.75Z" fill="#c4cbde"></path>
    <path d="M705.62,196.89c-1.19,0-2.36-.44-3.27-1.3l-20.91-20.44c-.25-.25-.47-.54-.66-.85-.06-.11-.12-.22-.18-.33-.96-2-.1-4.41,1.9-5.37,1.77-.94,3.96-.64,5.43,.75l21.06,20.34c.17,.17,.33,.35,.47,.54,.09,.12,.17,.25,.24,.37,1.11,1.92,.45,4.39-1.47,5.51l-.12,.08c-.77,.48-1.64,.71-2.51,.71Zm-23.47-22.45l20.9,20.43c1.23,1.16,3.1,1.36,4.55,.46l.13-.09c1.47-.85,1.96-2.71,1.12-4.15-.05-.09-.11-.18-.18-.27-.11-.14-.24-.29-.37-.42l-21.05-20.33c-1.15-1.09-2.88-1.32-4.29-.58-1.53,.73-2.17,2.54-1.45,4.05,.04,.09,.09,.17,.14,.25,.14,.24,.31,.46,.5,.65Z" fill="#002346"></path>
  </g>
  <path d="M593.89,238.16c-.16,0-.33-.08-.42-.23l-21.38-33.36c-.15-.23-.08-.54,.15-.69,.23-.15,.54-.08,.69,.15l21.38,33.36c.15,.23,.08,.54-.15,.69-.08,.05-.18,.08-.27,.08Z" fill="#002346"></path>
</svg>
