<svg width="493" height="356" viewBox="0 0 493 356" fill="none" xmlns="http://www.w3.org/2000/svg">
<path d="M250.154 108.409H327.285C328.449 108.409 329.396 107.384 329.396 106.124V57.4655C329.396 56.2052 328.449 55.1799 327.285 55.1799H250.154C248.99 55.1799 248.044 56.2052 248.044 57.4655V106.124C248.051 107.384 248.99 108.409 250.154 108.409Z" stroke="#C0CCD8" stroke-miterlimit="10"/>
<path d="M329.396 64.8274H248.051" stroke="#C0CCD8" stroke-miterlimit="10"/>
<path d="M324.144 61.467C323.425 61.467 322.842 60.8358 322.842 60.0572C322.842 59.2786 323.425 58.6475 324.144 58.6475C324.863 58.6475 325.445 59.2786 325.445 60.0572C325.445 60.8358 324.863 61.467 324.144 61.467Z" stroke="#C0CCD8" stroke-miterlimit="10"/>
<path d="M317.492 60.0572C317.492 60.8333 318.077 61.467 318.793 61.467C319.51 61.467 320.095 60.8333 320.095 60.0572C320.095 59.2811 319.51 58.6475 318.793 58.6475C318.077 58.6475 317.492 59.2811 317.492 60.0572Z" stroke="#C0CCD8" stroke-miterlimit="10"/>
<path d="M312.14 60.0572C312.14 60.8333 312.725 61.467 313.442 61.467C314.158 61.467 314.743 60.8333 314.743 60.0572C314.743 59.2811 314.158 58.6475 313.442 58.6475C312.725 58.6475 312.14 59.2811 312.14 60.0572Z" stroke="#C0CCD8" stroke-miterlimit="10"/>
<path d="M372.07 113.977H352.836C350.976 113.977 349.471 112.346 349.471 110.331V89.4982C349.471 87.4833 350.976 85.8528 352.836 85.8528H372.07C373.93 85.8528 375.436 87.4833 375.436 89.4982V110.331C375.436 112.339 373.93 113.977 372.07 113.977Z" stroke="#C0CCD8" stroke-miterlimit="10" stroke-linejoin="round"/>
<path d="M362.453 107.96C358.347 107.96 355.019 104.355 355.019 99.9077C355.019 95.4603 358.347 91.855 362.453 91.855C366.559 91.855 369.888 95.4603 369.888 99.9077C369.888 104.355 366.559 107.96 362.453 107.96Z" stroke="#C0CCD8" stroke-width="3" stroke-miterlimit="10"/>
<path d="M357.431 94.2258L367.929 105.596" stroke="#C0CCD8" stroke-width="3" stroke-miterlimit="10"/>
<path d="M176.713 107.576L182.097 101.531H264.98C268.858 101.531 272 98.1277 272 93.9269V47.2482C272 43.0474 268.858 39.644 264.98 39.644H181.728C177.85 39.644 174.708 43.0474 174.708 47.2482V106.7C174.708 107.832 175.983 108.395 176.713 107.576Z" fill="white" stroke="#C0CCD8" stroke-miterlimit="10" stroke-linejoin="round"/>
<path d="M99.2243 195.864H79.9907C78.1304 195.864 76.6252 194.234 76.6252 192.219V171.378C76.6252 169.363 78.1304 167.733 79.9907 167.733H99.2243C101.085 167.733 102.59 169.363 102.59 171.378V192.211C102.59 194.234 101.085 195.864 99.2243 195.864Z" stroke="#C0CCD8" stroke-miterlimit="10" stroke-linejoin="round"/>
<path d="M81.2396 189.698C81.3382 189.734 81.4434 189.755 81.5486 189.755L97.6664 189.762C98.0016 189.762 98.3171 189.563 98.488 189.25C98.6589 188.936 98.6589 188.545 98.488 188.224L90.4357 173.102C90.2648 172.788 89.9559 172.589 89.6206 172.589C89.2854 172.589 88.9699 172.781 88.799 173.102L80.7335 188.217C80.5626 188.531 80.5626 188.922 80.7335 189.243C80.8452 189.456 81.0293 189.62 81.2396 189.698ZM97.2194 188.459L81.989 188.452L89.6075 174.17L97.2194 188.459Z" fill="#C0CCD8"/>
<path d="M89.607 185.455C89.9094 185.455 90.1658 185.198 90.1789 184.864L90.5076 178.911C90.5339 178.356 90.1263 177.9 89.6136 177.9C89.1009 177.9 88.6933 178.363 88.7196 178.911L89.0417 184.864C89.0549 185.198 89.3047 185.455 89.607 185.455Z" fill="#C0CCD8"/>
<path d="M89.0286 186.893C89.0286 187.242 89.2916 187.519 89.6071 187.519C89.9292 187.519 90.1855 187.235 90.1855 186.893C90.1855 186.544 89.9226 186.266 89.6071 186.266C89.285 186.259 89.0286 186.544 89.0286 186.893Z" fill="#C0CCD8"/>
<path d="M429.606 145.604C429.606 146.48 430.264 147.192 431.072 147.192C431.881 147.192 432.538 146.48 432.538 145.604C432.538 144.728 431.881 144.016 431.072 144.016C430.264 144.016 429.606 144.728 429.606 145.604Z" stroke="#C0CCD8" stroke-miterlimit="10" stroke-linecap="round" stroke-linejoin="round"/>
<path d="M183.514 230.197C183.514 231.072 184.171 231.784 184.979 231.784C185.788 231.784 186.445 231.072 186.445 230.197C186.445 229.321 185.788 228.609 184.979 228.609C184.171 228.616 183.514 229.321 183.514 230.197Z" stroke="#C0CCD8" stroke-miterlimit="10" stroke-linecap="round" stroke-linejoin="round"/>
<path d="M82.8632 99.9078C82.8632 100.784 83.5205 101.496 84.3291 101.496C85.1376 101.496 85.7949 100.784 85.7949 99.9078C85.7949 99.0321 85.1376 98.3201 84.3291 98.3201C83.5205 98.3201 82.8632 99.0321 82.8632 99.9078Z" stroke="#C0CCD8" stroke-miterlimit="10" stroke-linecap="round" stroke-linejoin="round"/>
<path d="M161.927 50.8368C161.927 51.7125 162.584 52.4245 163.393 52.4245C164.201 52.4245 164.858 51.7125 164.858 50.8368C164.858 49.961 164.201 49.249 163.393 49.249C162.584 49.2561 161.927 49.961 161.927 50.8368Z" stroke="#C0CCD8" stroke-miterlimit="10" stroke-linecap="round" stroke-linejoin="round"/>
<path d="M85.7881 151.798V156.711" stroke="#C0CCD8" stroke-miterlimit="10" stroke-linecap="round" stroke-linejoin="round"/>
<path d="M83.5204 154.255H88.0625" stroke="#C0CCD8" stroke-miterlimit="10" stroke-linecap="round" stroke-linejoin="round"/>
<path d="M204.365 246.452V251.364" stroke="#C0CCD8" stroke-miterlimit="10" stroke-linecap="round" stroke-linejoin="round"/>
<path d="M202.097 248.908H206.633" stroke="#C0CCD8" stroke-miterlimit="10" stroke-linecap="round" stroke-linejoin="round"/>
<path d="M300.296 41.78V46.6928" stroke="#C0CCD8" stroke-miterlimit="10" stroke-linecap="round" stroke-linejoin="round"/>
<path d="M298.028 44.2363H302.563" stroke="#C0CCD8" stroke-miterlimit="10" stroke-linecap="round" stroke-linejoin="round"/>
<path d="M401.827 89.2634V94.1833" stroke="#C0CCD8" stroke-miterlimit="10" stroke-linecap="round" stroke-linejoin="round"/>
<path d="M399.559 91.7271H404.095" stroke="#C0CCD8" stroke-miterlimit="10" stroke-linecap="round" stroke-linejoin="round"/>
<path d="M409.216 202.386V207.299" stroke="#C0CCD8" stroke-miterlimit="10" stroke-linecap="round" stroke-linejoin="round"/>
<path d="M406.948 204.842H411.483" stroke="#C0CCD8" stroke-miterlimit="10" stroke-linecap="round" stroke-linejoin="round"/>
<path d="M152.101 69.5979V74.5107" stroke="#C0CCD8" stroke-miterlimit="10" stroke-linecap="round" stroke-linejoin="round"/>
<path d="M149.833 72.0542H154.368" stroke="#C0CCD8" stroke-miterlimit="10" stroke-linecap="round" stroke-linejoin="round"/>
<path d="M375.468 174.411H420.857C421.652 174.411 422.29 173.714 422.29 172.859C422.29 171.998 421.646 171.307 420.857 171.307H375.468C374.673 171.307 374.035 172.005 374.035 172.859C374.029 173.714 374.673 174.411 375.468 174.411Z" stroke="#C0CCD8" stroke-miterlimit="10"/>
<path d="M108.216 135.152H153.605C154.4 135.152 155.038 134.454 155.038 133.6C155.038 132.738 154.394 132.047 153.605 132.047H108.216C107.421 132.047 106.783 132.745 106.783 133.6C106.783 134.454 107.427 135.152 108.216 135.152Z" stroke="#C0CCD8" stroke-miterlimit="10"/>
<path d="M101.577 145.604H118.359C118.753 145.604 119.075 145.255 119.075 144.828C119.075 144.401 118.753 144.052 118.359 144.052H101.577C101.183 144.052 100.86 144.401 100.86 144.828C100.854 145.255 101.176 145.604 101.577 145.604Z" fill="#C0CCD8"/>
<path d="M145.973 108.559H162.755C163.15 108.559 163.472 108.21 163.472 107.782C163.472 107.355 163.15 107.006 162.755 107.006H145.973C145.579 107.006 145.257 107.355 145.257 107.782C145.257 108.21 145.579 108.559 145.973 108.559Z" fill="#C0CCD8"/>
<path d="M392.335 160.67H405.173C405.568 160.67 405.89 160.321 405.89 159.894C405.89 159.467 405.568 159.118 405.173 159.118H392.335C391.941 159.118 391.619 159.467 391.619 159.894C391.619 160.321 391.941 160.67 392.335 160.67Z" fill="#C0CCD8"/>
<path d="M133.274 92.0473H119.378C118.037 92.0473 116.946 90.8654 116.946 89.4129V74.3612C116.946 72.9087 118.037 71.7268 119.378 71.7268H133.274C134.615 71.7268 135.706 72.9087 135.706 74.3612V89.4129C135.706 90.8654 134.615 92.0473 133.274 92.0473Z" stroke="#C0CCD8" stroke-miterlimit="10" stroke-linejoin="round"/>
<path d="M128.976 81.0326L128.648 82.777H130.442V84.3291H128.378L127.846 87.3836H126.321L126.86 84.3291H124.888L124.362 87.3836H122.87L123.382 84.3291H121.732V82.777H123.658L123.987 81.0326H122.239V79.4591H124.243L124.776 76.3975H126.294L125.762 79.4591H127.754L128.293 76.3975H129.785L129.246 79.4591H130.915V81.0326H128.976ZM125.157 82.777H127.142L127.471 81.0326H125.486L125.157 82.777Z" fill="#C0CCD8"/>
<path d="M284.296 232.625L297.476 139.004H356.833L342.608 238.214C341.642 244.935 336.469 249.67 330.08 249.67H230.277L229.54 240.578H275.633C280.056 240.578 283.639 237.288 284.296 232.625Z" fill="#475577"/>
<path d="M340.472 232.625L353.165 142.464C353.454 140.435 355.012 138.997 356.945 138.997H357.063C359.765 138.997 361.98 141.738 361.573 144.586L348.143 238.207C347.177 244.928 342.004 249.663 335.614 249.663H271.334L270.598 240.57H331.808C336.232 240.578 339.821 237.288 340.472 232.625Z" fill="#717A91"/>
<path d="M300.296 249.663V300.77" stroke="#544943" stroke-width="1.5" stroke-miterlimit="10"/>
<path d="M326.74 305.284C326.74 302.792 324.873 300.77 322.573 300.77H278.012C275.711 300.77 273.845 302.792 273.845 305.284" stroke="#544943" stroke-width="1.5" stroke-miterlimit="10"/>
<path d="M304.851 305.284C304.851 302.792 302.984 300.77 300.683 300.77" stroke="#544943" stroke-width="1.5" stroke-miterlimit="10"/>
<path d="M322.533 309.841C322.533 312.362 324.42 314.398 326.74 314.398C329.067 314.398 330.947 312.354 330.947 309.841C330.947 307.321 329.061 305.284 326.74 305.284C324.42 305.284 322.533 307.328 322.533 309.841Z" fill="#717A91"/>
<g opacity="0.45">
<path opacity="0.45" d="M325.196 309.841C325.196 310.767 325.886 311.514 326.74 311.514C327.595 311.514 328.285 310.767 328.285 309.841C328.285 308.916 327.595 308.168 326.74 308.168C325.886 308.168 325.196 308.916 325.196 309.841Z" fill="#8E9DB2"/>
</g>
<path d="M300.645 309.841C300.645 312.362 302.531 314.398 304.852 314.398C307.179 314.398 309.059 312.354 309.059 309.841C309.059 307.321 307.172 305.284 304.852 305.284C302.531 305.284 300.645 307.328 300.645 309.841Z" fill="#717A91"/>
<g opacity="0.45">
<path opacity="0.45" d="M303.306 309.841C303.306 310.766 303.996 311.514 304.851 311.514C305.705 311.514 306.396 310.766 306.396 309.841C306.396 308.915 305.705 308.167 304.851 308.167C304.003 308.167 303.306 308.915 303.306 309.841Z" fill="#8E9DB2"/>
</g>
<path d="M269.638 309.841C269.638 312.362 271.524 314.398 273.845 314.398C276.172 314.398 278.052 312.354 278.052 309.841C278.052 307.321 276.165 305.284 273.845 305.284C271.524 305.284 269.638 307.328 269.638 309.841Z" fill="#717A91"/>
<g opacity="0.45">
<path opacity="0.45" d="M272.3 309.841C272.3 310.767 272.99 311.514 273.845 311.514C274.699 311.514 275.39 310.767 275.39 309.841C275.39 308.916 274.699 308.168 273.845 308.168C272.99 308.168 272.3 308.916 272.3 309.841Z" fill="#8E9DB2"/>
</g>
<path d="M253.9 149.05L238.854 124.707L234.194 125.76C237.756 138.754 240.11 143.895 240.11 143.895" fill="#FFCBBB"/>
<path d="M236.594 129.79L234.194 125.76C234.194 125.76 229.731 124.65 228.107 123.753C226.484 122.855 225.406 121.268 224.952 119.922C224.604 118.89 224.755 115.871 225.163 115.821C226.122 115.707 228.035 119.58 228.936 119.808C229.83 120.036 232.742 119.801 234.339 120.029C237.027 120.413 238.165 123.14 238.165 123.14L240.623 127.975" fill="#FFCBBB"/>
<path d="M244.067 131.834L241.431 127.683L234.595 131.008L236.764 137.309" fill="#E6E8EF"/>
<path d="M298.961 123.155C298.961 123.155 287.819 117.601 278.012 127.056C268.198 136.512 261.559 145.291 257.957 148.139L243.173 129.719L234.917 133.92C237.093 147.256 243.206 168.53 258.154 170.723C274.331 173.094 298.054 151.492 298.054 151.492" fill="#B9B5B2"/>
<path d="M262.748 154.255L257.956 148.139" stroke="#846A6A" stroke-miterlimit="10"/>
<path d="M239.118 306.701L240.367 311.906C240.669 313.166 239.788 314.405 238.585 314.405H224.032C223.158 314.405 222.448 313.636 222.448 312.689C222.448 311.942 222.895 311.279 223.552 311.052L233.498 306.701" fill="#173789"/>
<path d="M247.505 225.433C249.832 251.884 239.118 306.701 239.118 306.701C239.118 306.701 236.574 310.033 233.497 306.701C233.497 306.701 230.914 254.433 228.199 230.937" fill="#FFCBBB"/>
<path d="M282.226 194.447L265.523 203.938V204.123C265.523 204.123 231.44 201.646 226.28 214.825C218.208 235.466 216.834 302.593 216.834 302.593H241.78C241.78 302.593 251.068 246.21 254.237 242.771C257.411 239.332 270.499 239.588 294.57 239.588C321.607 239.588 308.407 201.831 298.344 198.591" fill="#0C60CC"/>
<path d="M240.057 302.593C240.057 302.593 247.472 244.408 252.921 240.143C259.574 234.931 290.994 238.335 290.994 238.335" stroke="#579CF5" stroke-miterlimit="10"/>
<path d="M291.428 306.701L292.677 311.906C292.98 313.166 292.099 314.405 290.896 314.405H276.343C275.468 314.405 274.758 313.636 274.758 312.689C274.758 311.942 275.205 311.279 275.863 311.052L285.808 306.701" fill="#173789"/>
<path d="M289.009 225.433C291.336 251.884 291.435 306.701 291.435 306.701C291.435 306.701 288.891 310.033 285.814 306.701C285.814 306.701 277.059 254.433 274.337 230.937" fill="#FFCBBB"/>
<path d="M311.688 202.756C311.688 202.756 267.876 203.518 262.144 217.9C255.098 235.579 266.713 302.593 266.713 302.593H293.118V242.642C293.118 241.482 293.959 240.435 295.031 240.471C298.685 240.577 306.85 240.577 317.209 240.577C344.245 240.577 331.046 195.002 320.982 191.763" fill="#0C60CC"/>
<path d="M311.688 202.756C311.688 202.756 267.876 203.518 262.144 217.9C260.231 222.692 259.239 230.851 259.752 240.577" stroke="#579CF5" stroke-miterlimit="10"/>
<path d="M289.437 302.593C289.437 302.593 289.167 242.414 290.443 239.196C292.218 234.732 298.272 236.925 312.312 236.925C339.348 236.925 328.331 195.002 318.268 191.763" stroke="#579CF5" stroke-miterlimit="10"/>
<path d="M328.516 210.083C328.516 210.083 314.633 210.446 312.536 208.167C310.432 205.889 312.536 195.565 312.536 195.565" stroke="#579CF5" stroke-miterlimit="10"/>
<path d="M328.856 212.097C328.856 212.097 313.008 212.46 310.609 210.182C308.21 207.903 310.609 197.558 310.609 197.558" stroke="#579CF5" stroke-miterlimit="10" stroke-dasharray="3 3"/>
<path d="M331.532 140.114C331.532 140.114 334.858 204.123 329.823 204.123C324.788 204.123 268.803 203.938 265.522 203.938C262.242 203.938 269.92 149.2 280.976 137.637C280.976 137.637 297.377 118.363 304.601 120.207C311.832 122.051 331.532 140.114 331.532 140.114Z" fill="#B9B5B2"/>
<path d="M269.078 169.228L276.026 138.363" stroke="#846A6A" stroke-miterlimit="10"/>
<path d="M359.85 151.706L374.896 127.363L379.557 128.417C375.994 141.411 373.641 146.551 373.641 146.551" fill="#FFCBBB"/>
<path d="M377.158 132.439L379.557 128.409C379.557 128.409 384.02 127.299 385.644 126.401C387.267 125.504 388.345 123.917 388.799 122.571C389.147 121.538 388.996 118.52 388.589 118.47C387.629 118.356 385.716 122.229 384.816 122.457C383.922 122.685 381.016 122.45 379.412 122.678C376.724 123.062 375.587 125.789 375.587 125.789L373.128 130.624" fill="#FFCBBB"/>
<path d="M369.683 134.49L372.326 130.339L379.162 133.664L376.993 139.965" fill="#E6E8EF"/>
<path d="M310.846 123.518C310.846 123.518 321.856 115.038 333.221 125.454C343.817 135.159 350.877 154.746 353.244 154.746C354.887 154.746 365.082 140.663 371.169 132.047L378.406 136.241C373.844 151.328 363.899 176.996 349.017 176.996C337.343 176.996 313.363 147.37 313.363 147.37" fill="#B9B5B2"/>
<path d="M332.492 167.519L314.751 151.492" stroke="#846A6A" stroke-miterlimit="10"/>
<path d="M309.788 125.034L299.205 137.309L297.825 123.119" fill="#CC0C0C"/>
<path d="M309.788 125.034L299.205 137.309L297.825 123.119" stroke="#846A6A" stroke-miterlimit="10" stroke-linejoin="round"/>
<path d="M301.289 112.638L298.311 119.701C298.311 119.701 297.115 123.745 302.071 125.582C307.507 127.59 310.84 123.517 310.84 123.517L311.622 112.432" fill="#FFCBBB"/>
<path d="M311.129 119.48C311.129 119.48 307.211 124.792 302.071 125.582L305.805 131.584C308.828 129.74 312.529 122.578 312.529 122.578L311.129 119.48Z" fill="white"/>
<path d="M298.626 118.733C298.626 118.733 299.251 122.528 302.077 125.582L297.824 129.064C296.845 126.458 296.957 122.4 296.957 122.4L298.626 118.733Z" fill="white"/>
<path d="M296.878 101.232C296.878 101.232 294.071 112.88 298.284 115.828C302.505 118.776 309.84 114.29 310.261 112.831C310.682 111.371 312.601 98.9323 309.847 97.9996C304.963 96.3406 298.317 96.2623 296.878 101.232Z" fill="#FFCBBB"/>
<path d="M296.97 105.013C296.898 105.333 297.082 105.653 297.378 105.725C297.674 105.803 297.969 105.604 298.035 105.283C298.107 104.963 297.923 104.642 297.628 104.571C297.338 104.493 297.042 104.692 296.97 105.013Z" fill="#173789"/>
<path d="M297.91 101.538C297.726 101.567 296.898 101.659 297.075 102.101C297.154 102.3 297.443 102.293 297.601 102.279C297.772 102.272 297.943 102.243 298.1 102.3C298.054 102.35 298.022 102.414 297.995 102.478C297.943 102.613 298.35 102.628 298.396 102.628C298.804 102.628 299.29 102.549 299.783 102.905C299.468 101.652 298.212 101.488 297.91 101.538Z" fill="#173789"/>
<path d="M303.734 106.622C303.714 106.949 303.458 107.198 303.155 107.184C302.853 107.163 302.623 106.885 302.636 106.558C302.656 106.23 302.912 105.981 303.215 105.995C303.517 106.017 303.747 106.294 303.734 106.622Z" fill="#173789"/>
<path d="M305.358 104.272C305.752 104.5 306.087 104.813 305.995 105.169C305.923 105.454 305.667 105.383 305.502 105.241C305.233 105.013 304.931 104.835 304.602 104.721C304.746 104.849 304.832 105.056 304.819 105.255C303.793 105.148 302.899 104.187 302.788 103.076C302.794 103.154 303.458 103.596 303.557 103.646C304.142 103.945 304.779 103.938 305.358 104.272Z" fill="#173789"/>
<path d="M299.704 105.704C299.704 105.704 298.206 109.791 298.738 110.147C299.27 110.503 301.15 110.453 301.15 110.453" stroke="#EF977F" stroke-miterlimit="10"/>
<path d="M299.646 116.505C299.646 116.505 303.918 118.292 307.672 115.045" stroke="#EF977F" stroke-miterlimit="10"/>
<path d="M302.077 113.771C302.077 113.771 301.696 111.969 298.961 111.969" stroke="#EF977F" stroke-miterlimit="10"/>
<path d="M294.505 94.9807C294.551 94.4253 294.63 93.8344 294.985 93.4357C295.386 92.9729 296.037 92.8803 296.622 92.8732C298.686 92.8589 300.743 93.5709 302.419 94.8739C301.959 94.4396 301.506 94.0124 301.046 93.5781C300.684 93.2363 299.869 92.6952 300.263 92.0544C300.605 91.4919 301.585 91.8123 302.084 91.8052C304.437 91.7767 306.705 92.6809 308.874 93.5852C309.946 94.0266 311.017 94.4823 311.984 95.1445C312.95 95.8066 313.811 96.7109 314.278 97.8429C314.685 98.8326 314.764 99.9505 314.757 101.033C314.744 102.984 314.462 104.92 314.179 106.85C313.87 108.95 313.403 113.094 310.8 113.35C310.294 113.4 309.742 113.436 309.328 113.108C308.92 112.788 308.782 112.211 308.717 111.67C308.618 110.794 308.677 109.897 308.868 109.043C308.381 109.327 307.915 109.812 307.369 109.719C307.185 109.691 307.001 109.584 306.942 109.399C306.902 109.278 306.915 109.149 306.929 109.021C307.132 107.006 307.244 105.006 307.362 102.984C304.694 102.371 302.012 101.844 299.31 101.403C298.114 101.211 296.845 100.997 295.918 100.157C294.584 98.9608 294.354 96.8461 294.505 94.9807Z" fill="#1D4E8C"/>
<path d="M308.29 109.819C308.73 108.637 309.506 107.206 310.722 108.01C311.149 108.295 311.392 108.9 311.556 109.491C312.115 111.449 310.814 114.468 309.045 114.183C308.184 114.048 307.705 112.937 307.35 112.019" fill="#FFCBBB"/>
<path d="M147.144 237.018C147.15 230.674 144.646 224.38 140.386 220.029C138.283 217.886 135.772 216.227 133.063 215.152C131.538 214.54 124.222 213.942 124.222 213.942C124.222 213.942 125.077 219.987 126.53 223.034C129.928 230.14 136.646 236.106 147.144 237.018Z" fill="#8EBCA2"/>
<path d="M125.629 255.067C122.986 251.557 119.161 249.107 115.046 248.289C110.931 247.47 106.553 248.289 102.931 250.553C102.813 250.624 102.688 250.717 102.655 250.859C102.616 251.03 102.727 251.194 102.839 251.322C106.238 255.444 111.509 257.666 116.584 257.117C118.819 256.875 123.499 255.814 125.629 255.067Z" fill="#A2CCB6"/>
<path d="M119.752 245.419C119.745 239.887 118.049 234.924 115.052 231.678C112.055 228.431 107.782 226.922 103.227 227.505C103.075 227.527 102.911 227.555 102.793 227.705C102.648 227.883 102.642 228.132 102.655 228.338C102.911 234.996 105.994 240.507 110.694 242.721C112.758 243.696 117.445 245.092 119.752 245.419Z" fill="#8EBCA2"/>
<path d="M111.824 235.53C109.8 231.998 107.341 228.766 104.528 225.946C103.397 224.814 102.201 223.732 100.84 222.942C96.4426 220.386 91.0196 221.176 86.2934 222.906C88.1734 226.772 90.6252 230.56 94.234 232.518C95.8313 233.387 97.5798 233.857 99.3217 234.277C102.786 235.117 108.314 235.031 111.824 235.53Z" fill="#A2CCB6"/>
<path d="M114.342 226.295C123.137 221.304 124.439 210.895 124.662 207.043C124.8 204.629 124.656 201.945 122.802 200.208C111.897 204.373 109.11 212.361 114.342 226.295Z" fill="#8EBCA2"/>
<path d="M152.244 224.793C151.56 219.723 150.929 214.276 153.059 209.698C153.821 208.061 154.906 206.615 156.089 205.298C158.949 202.108 162.695 199.474 166.797 199.467C167.533 204.216 166.646 209.243 164.332 213.358C162.025 217.473 158.317 220.649 154.084 222.123" fill="#8EBCA2"/>
<path d="M126.661 257.957C131.564 256.185 135.732 252.14 137.895 247.05C140.057 241.966 140.195 235.907 138.256 230.716C138.171 230.489 138.059 230.232 137.835 230.154C137.625 230.083 137.408 230.197 137.217 230.318C129.638 235.038 124.446 248.787 126.661 257.957Z" fill="#A2CCB6"/>
<path d="M147.281 229.955C148.694 225.519 148.622 220.549 147.071 216.163C145.519 211.784 142.509 208.025 138.722 205.754C137.178 204.828 135.502 204.13 134.128 202.92C133.661 205.148 133.352 207.413 133.194 209.691C133.037 211.941 133.043 214.241 133.595 216.419C135.022 222.051 139.814 225.882 144.625 228.509" fill="#A2CCB6"/>
<path d="M153.638 229.1C161.539 230.14 171.261 226.687 175.487 218.627C161.979 211.186 153.638 222.564 153.638 229.1Z" fill="#A2CCB6"/>
<path d="M149.03 248.189C150.798 241.617 155.465 236.227 161.079 234.262C166.692 232.29 173.101 233.799 177.644 238.157C177.834 238.335 178.038 238.57 178.018 238.854C178.005 239.025 177.92 239.175 177.834 239.31C174.817 244.038 169.999 246.829 165.075 248.004C160.152 249.178 155.064 248.901 150.049 248.495" fill="#A2CCB6"/>
<path d="M159.186 213.151C155.091 217.587 152.534 223.212 150.628 229.065C148.649 235.124 147.21 241.404 146.059 247.705C143.634 260.998 142.996 274.455 141.583 287.883C141.563 288.075 141.294 288.082 141.3 287.883C141.839 274.205 143.2 260.329 145.711 246.914C146.94 240.364 148.485 233.821 150.687 227.569C152.593 222.172 155.15 217.025 159.048 213.009C159.14 212.916 159.272 213.059 159.186 213.151Z" fill="#597F6E"/>
<path d="M144.659 253.7C147.689 248.381 152.717 245.234 157.943 242.935C163.78 240.364 170.4 238.755 176.73 239.211C176.881 239.225 176.888 239.467 176.73 239.474C165.213 240.03 152.027 243.056 144.935 253.871C144.816 254.063 144.547 253.899 144.659 253.7Z" fill="#597F6E"/>
<path d="M147.051 241.211C147.104 236.199 147.584 231.172 146.677 226.21C145.829 221.596 144.126 217.416 141.582 213.614C141.51 213.507 141.674 213.365 141.753 213.472C147.939 221.005 148.011 231.77 147.202 241.211C147.189 241.311 147.045 241.318 147.051 241.211Z" fill="#597F6E"/>
<path d="M165.378 221.375C161.999 221.831 159.008 224.287 156.458 226.565C153.914 228.83 151.639 231.428 149.102 233.7C148.997 233.792 148.852 233.643 148.951 233.536C151.508 230.766 154.256 228.082 157.115 225.683C159.521 223.668 162.262 221.61 165.378 221.304C165.424 221.297 165.424 221.368 165.378 221.375Z" fill="#597F6E"/>
<path d="M129.744 270.489C127.89 260.072 124.025 250.546 117.609 242.457C114.513 238.556 110.957 235.088 107.026 232.205C102.905 229.172 98.507 227.114 93.8663 225.22C93.6756 225.142 93.748 224.828 93.9517 224.885C103.279 227.52 111.877 234.497 118.036 242.358C124.183 250.197 128.843 260.158 129.987 270.453C130 270.603 129.77 270.638 129.744 270.489Z" fill="#597F6E"/>
<path d="M119.055 208.274C114.434 218.812 112.718 230.766 117.399 241.61C117.491 241.824 117.215 242.009 117.103 241.795C111.483 231.671 114.21 218.036 118.818 208.125C118.904 207.954 119.134 208.103 119.055 208.274Z" fill="#597F6E"/>
<path d="M113.041 263.575V271.92C113.041 304.999 121.08 314.405 121.08 314.405H145.974C145.974 314.405 154.013 304.999 154.013 271.92V263.575H113.041Z" fill="#F2F5F9"/>
<path d="M380.365 314.398L359.252 204.757" stroke="#544943" stroke-width="1.5" stroke-miterlimit="10"/>
<path d="M338.145 314.398L359.252 204.757" stroke="#544943" stroke-width="1.5" stroke-miterlimit="10"/>
<path d="M167.146 314.398L146.033 204.757" stroke="#544943" stroke-width="1.5" stroke-miterlimit="10"/>
<path d="M124.92 314.398L146.033 204.757" stroke="#544943" stroke-width="1.5" stroke-miterlimit="10"/>
<path d="M127.515 198.2H379.682V204.757H127.515V198.2Z" fill="#E7EAF2"/>
<path d="M139.67 185.697H228.778C230.369 185.697 231.571 184.137 231.295 182.443L221.054 120.065C220.732 118.085 219.141 116.647 217.288 116.647H128.18C126.589 116.647 125.386 118.206 125.662 119.901L135.903 182.279C136.225 184.259 137.816 185.697 139.67 185.697Z" fill="#475577"/>
<path d="M137.593 185.697H226.707C228.298 185.697 229.501 184.137 229.225 182.443L218.984 120.065C218.662 118.085 217.071 116.647 215.217 116.647H126.103C124.512 116.647 123.309 118.206 123.585 119.901L133.826 182.279C134.155 184.259 135.746 185.697 137.593 185.697Z" fill="#C0CCD8"/>
<path opacity="0.45" d="M153.993 185.697H205.462C206.383 185.697 207.073 184.8 206.915 183.817L200.999 147.79C200.808 146.651 199.895 145.818 198.823 145.818H147.354C146.434 145.818 145.744 146.715 145.901 147.698L151.817 183.725C152.008 184.864 152.922 185.697 153.993 185.697Z" fill="#8E9DB2"/>
<path d="M152.757 185.697H204.226C205.146 185.697 205.836 184.8 205.679 183.817L199.763 147.79C199.572 146.651 198.658 145.818 197.587 145.818H146.118C145.197 145.818 144.507 146.715 144.665 147.698L150.581 183.725C150.772 184.864 151.685 185.697 152.757 185.697Z" fill="#C6D2E0"/>
<path d="M164.162 164.508H185.052V185.697H164.162V164.508Z" fill="#8E9DB2"/>
<path d="M165.365 164.508H185.059V170.595L179.682 194.761H158.778L165.365 164.508ZM170.42 188.31C172.76 188.31 175.238 185.355 175.948 181.703C176.658 178.057 175.337 175.095 172.997 175.095C170.656 175.095 168.178 178.05 167.468 181.703C166.758 185.355 168.08 188.31 170.42 188.31Z" fill="#475577"/>
<path d="M196.575 194.76H149.786V198.199H199.757C199.75 196.298 198.33 194.76 196.575 194.76Z" fill="#475577"/>
<path d="M149.78 194.76H187.188V198.199H149.78V194.76Z" fill="#C0CCD8"/>
<path d="M164.155 164.508H185.059L178.472 194.761H157.569L164.155 164.508ZM169.283 188.31C171.623 188.31 174.101 185.355 174.811 181.703C175.521 178.057 174.199 175.095 171.859 175.095C169.519 175.095 167.041 178.05 166.331 181.703C165.621 185.355 166.943 188.31 169.283 188.31Z" fill="#C0CCD8"/>
<g opacity="0.65">
<path opacity="0.65" d="M212.962 122.792L214.198 130.332H212.962L211.727 122.792H212.962Z" fill="#8E9DB2"/>
<path opacity="0.65" d="M209.379 122.792L210.615 130.332H209.379L208.144 122.792H209.379Z" fill="#8E9DB2"/>
<path opacity="0.65" d="M205.797 122.792L207.033 130.332H205.797L204.562 122.792H205.797Z" fill="#8E9DB2"/>
<path opacity="0.65" d="M202.215 122.792L203.451 130.332H202.215L200.98 122.792H202.215Z" fill="#8E9DB2"/>
<path opacity="0.65" d="M198.632 122.792L199.868 130.332H198.632L197.397 122.792H198.632Z" fill="#8E9DB2"/>
</g>
<g opacity="0.65">
<path opacity="0.65" d="M165.944 122.792L167.18 130.332H165.944L164.708 122.792H165.944Z" fill="#8E9DB2"/>
<path opacity="0.65" d="M162.178 122.792L163.42 130.332H162.178L160.942 122.792H162.178Z" fill="#8E9DB2"/>
<path opacity="0.65" d="M158.418 122.792L159.653 130.332H158.418L157.175 122.792H158.418Z" fill="#8E9DB2"/>
<path opacity="0.65" d="M154.651 122.792L155.887 130.332H154.651L153.415 122.792H154.651Z" fill="#8E9DB2"/>
<path opacity="0.65" d="M150.884 122.792L152.12 130.332H150.884L149.649 122.792H150.884Z" fill="#8E9DB2"/>
<path opacity="0.65" d="M147.118 122.792L148.36 130.332H147.118L145.882 122.792H147.118Z" fill="#8E9DB2"/>
<path opacity="0.65" d="M143.358 122.792L144.594 130.332H143.358L142.116 122.792H143.358Z" fill="#8E9DB2"/>
<path opacity="0.65" d="M139.591 122.792L140.827 130.332H139.591L138.356 122.792H139.591Z" fill="#8E9DB2"/>
<path opacity="0.65" d="M135.825 122.792L137.067 130.332H135.825L134.589 122.792H135.825Z" fill="#8E9DB2"/>
<path opacity="0.65" d="M132.065 122.792L133.301 130.332H132.065L130.823 122.792H132.065Z" fill="#8E9DB2"/>
</g>
<g opacity="0.55">
<path opacity="0.55" d="M308.651 181.105C308.651 181.105 308.073 180.991 307.836 180.635C307.35 179.901 308.158 179.125 308.684 178.755C309.361 178.285 310.288 178.128 310.616 177.231C310.985 176.22 310.347 175.095 309.578 174.54C308.927 174.077 308.165 173.842 307.435 173.543C306.62 173.216 305.798 172.682 305.325 171.856C304.733 170.823 304.852 169.499 304.773 168.338C304.47 163.796 300.178 161.539 296.569 161.446C294.762 161.403 292.001 162.101 290.804 163.618C290.403 164.13 290.095 164.736 289.983 165.398C289.805 166.423 290.173 167.37 290.785 168.132C291.403 168.901 292.257 169.349 292.934 170.04C293.638 170.752 293.138 171.507 293.296 172.361C293.473 173.308 294.058 173.714 294.821 174.17C296.425 175.138 298.311 175.38 300.053 175.907C300.599 176.071 301.144 176.27 301.585 176.655C302.157 177.153 302.479 177.893 302.906 178.534C303.695 179.695 304.885 180.528 306.186 180.813" fill="url(#paint0_linear_743_974)"/>
</g>
<path d="M298.6 192.546H302.024V190.774H298.6C297.495 190.774 296.595 189.798 296.595 188.602V185.548C296.595 184.351 297.495 183.376 298.6 183.376H302.024V181.603H298.6C296.595 181.603 294.965 183.369 294.965 185.54V188.595C294.965 190.781 296.595 192.546 298.6 192.546Z" fill="#E8EAEF"/>
<path d="M303.484 197.203H309.262C311.484 197.203 313.285 195.252 313.285 192.845V179.111H299.455V192.845C299.461 195.252 301.263 197.203 303.484 197.203Z" fill="#E8EAEF"/>
<path d="M315.526 194.675C315.526 194.675 315.395 198.2 310.34 198.2H302.413C297.358 198.2 297.226 194.675 297.226 194.675H315.526Z" fill="#C6D2E0"/>
<path d="M204.411 196.79H277.559V198.2H204.411V196.79Z" fill="#475577"/>
<path d="M269.816 195.658H275.055V196.797H269.816V195.658Z" fill="#475577"/>
<path d="M261.881 195.658H267.12V196.797H261.881V195.658Z" fill="#475577"/>
<path d="M253.948 195.658H259.187V196.797H253.948V195.658Z" fill="#475577"/>
<path d="M246.013 195.658H251.252V196.797H246.013V195.658Z" fill="#475577"/>
<path d="M238.079 195.658H243.318V196.797H238.079V195.658Z" fill="#475577"/>
<path d="M230.145 195.658H235.384V196.797H230.145V195.658Z" fill="#475577"/>
<path d="M222.211 195.658H227.45V196.797H222.211V195.658Z" fill="#475577"/>
<path d="M214.278 195.658H219.517V196.797H214.278V195.658Z" fill="#475577"/>
<path d="M206.337 195.658H211.576V196.797H206.337V195.658Z" fill="#475577"/>
<path d="M203.451 196.79H276.599V198.2H203.451V196.79Z" fill="#C0CCD8"/>
<path d="M268.862 195.658H274.101V196.797H268.862V195.658Z" fill="#C0CCD8"/>
<path d="M260.928 195.658H266.167V196.797H260.928V195.658Z" fill="#C0CCD8"/>
<path d="M252.988 195.658H258.227V196.797H252.988V195.658Z" fill="#C0CCD8"/>
<path d="M245.053 195.658H250.292V196.797H245.053V195.658Z" fill="#C0CCD8"/>
<path d="M237.119 195.658H242.358V196.797H237.119V195.658Z" fill="#C0CCD8"/>
<path d="M229.185 195.658H234.424V196.797H229.185V195.658Z" fill="#C0CCD8"/>
<path d="M221.251 195.658H226.49V196.797H221.251V195.658Z" fill="#C0CCD8"/>
<path d="M213.318 195.658H218.557V196.797H213.318V195.658Z" fill="#C0CCD8"/>
<path d="M205.383 195.658H210.622V196.797H205.383V195.658Z" fill="#C0CCD8"/>
<path d="M380.687 251.351C379.779 247.442 380.18 243.191 381.804 239.567C383.428 235.943 386.261 232.967 389.659 231.329C391.046 230.66 392.532 230.197 393.781 229.271C394.024 231.215 394.136 233.18 394.116 235.138C394.096 237.082 393.938 239.047 393.314 240.863C391.71 245.569 387.345 248.46 383.046 250.325" fill="#8EBCA2"/>
<path d="M380.161 263.967C380.03 254.86 379.918 244.465 386.531 237.687C386.636 237.58 386.78 237.737 386.688 237.858C383.724 241.589 381.601 246.103 380.97 251.016C380.417 255.309 380.641 259.659 380.312 263.967C380.299 264.066 380.161 264.066 380.161 263.967Z" fill="#597F6E"/>
<path d="M390.902 275.907C391.533 270.503 394.301 265.434 398.369 262.23C400.374 260.649 402.682 259.539 405.101 258.933C406.461 258.592 412.752 258.948 412.752 258.948C412.752 258.948 411.418 263.996 409.873 266.424C406.264 272.077 399.941 276.37 390.902 275.907Z" fill="#8EBCA2"/>
<path d="M396.404 258.499C396.568 255.231 397.121 251.984 398.047 248.88C398.422 247.634 398.856 246.395 399.5 245.291C401.577 241.717 405.462 240.051 409.202 239.317C409.248 242.763 408.887 246.388 407.132 249.221C406.356 250.474 405.344 251.514 404.325 252.518C402.307 254.519 398.586 256.719 396.404 258.499Z" fill="#A2CCB6"/>
<path d="M375.172 246.594C375.757 242.237 376.303 237.559 374.469 233.629C373.811 232.219 372.878 230.98 371.866 229.848C369.407 227.107 366.193 224.843 362.67 224.835C362.039 228.915 362.801 233.23 364.786 236.769C366.765 240.307 371.537 245.32 375.172 246.594Z" fill="#A2CCB6"/>
<path d="M381.634 271.899C377.894 272.739 373.851 271.835 370.722 269.457C367.593 267.079 365.437 263.269 364.892 259.175C364.865 258.997 364.852 258.784 364.964 258.648C365.069 258.52 365.253 258.506 365.411 258.506C371.879 258.463 379.905 265.149 381.634 271.899Z" fill="#A2CCB6"/>
<path d="M394.932 256.15C389.607 252.903 386.183 246.395 386.084 239.332C389.93 239.104 392.822 241.66 394.498 243.875C396.825 246.943 397.022 252.347 394.932 256.15Z" fill="#A2CCB6"/>
<path d="M391.06 267.555C392.479 263.718 392.032 259.132 389.903 255.7C387.773 252.269 384.02 250.09 380.2 250.076C380.043 250.076 379.859 250.09 379.767 250.232C379.714 250.318 379.707 250.425 379.701 250.524C379.556 254.07 380.996 257.523 383.06 260.279C385.124 263.034 387.779 265.184 390.442 267.242" fill="#A2CCB6"/>
<path d="M369.335 236.455C376.428 243.753 378.913 255.459 380.799 265.462C382.975 277.018 384.198 289.001 384.599 300.785C384.605 300.984 384.336 300.977 384.316 300.785C383.041 289.25 382.541 277.687 380.451 266.26C378.59 256.064 376.198 244.231 369.204 236.605C369.118 236.512 369.25 236.37 369.335 236.455Z" fill="#597F6E"/>
<path d="M391.067 273.657C391.178 270.197 390.639 267.078 389.916 263.732C389.883 263.59 390.074 263.497 390.14 263.632C391.474 266.423 391.862 270.631 391.389 273.707C391.356 273.899 391.06 273.857 391.067 273.657Z" fill="#597F6E"/>
<path d="M390.626 244.216C394.886 248.395 395.97 257.153 394.228 262.828C394.189 262.97 393.992 262.913 394.024 262.764C395.287 256.84 394.872 248.787 390.573 244.266C390.547 244.237 390.593 244.188 390.626 244.216Z" fill="#597F6E"/>
<path d="M389.075 293.728C388.845 285.697 390.068 277.267 392.105 269.563C394.117 261.966 397.344 253.721 402.695 248.146C402.846 247.99 403.043 248.217 402.918 248.388C400.532 251.585 398.311 254.746 396.555 258.42C394.767 262.166 393.387 266.138 392.335 270.197C390.324 277.936 389.752 285.747 389.312 293.728C389.312 293.899 389.082 293.899 389.075 293.728Z" fill="#597F6E"/>
<path d="M367.324 279.73V285.419C367.324 307.983 374.233 314.398 374.233 314.398H395.616C395.616 314.398 402.524 307.983 402.524 285.419V279.73H367.324Z" fill="#F2F5F9"/>
<path d="M414.265 314.398H78.7354" stroke="#475577" stroke-width="2" stroke-miterlimit="10"/>
<path d="M195.12 83.33C192.98 83.33 191.1 82.88 189.48 81.98C187.86 81.06 186.6 79.78 185.7 78.14C184.82 76.5 184.38 74.59 184.38 72.41C184.38 70.77 184.63 69.28 185.13 67.94C185.65 66.6 186.38 65.45 187.32 64.49C188.28 63.53 189.42 62.8 190.74 62.3C192.06 61.78 193.52 61.52 195.12 61.52C197.26 61.52 199.13 61.97 200.73 62.87C202.35 63.77 203.61 65.04 204.51 66.68C205.41 68.3 205.86 70.21 205.86 72.41C205.86 74.05 205.6 75.54 205.08 76.88C204.58 78.22 203.85 79.38 202.89 80.36C201.95 81.32 200.82 82.06 199.5 82.58C198.18 83.08 196.72 83.33 195.12 83.33ZM195.12 78.71C196.18 78.71 197.08 78.46 197.82 77.96C198.56 77.46 199.13 76.74 199.53 75.8C199.93 74.86 200.13 73.73 200.13 72.41C200.13 70.43 199.69 68.89 198.81 67.79C197.93 66.69 196.7 66.14 195.12 66.14C194.08 66.14 193.18 66.39 192.42 66.89C191.68 67.37 191.11 68.08 190.71 69.02C190.31 69.94 190.11 71.07 190.11 72.41C190.11 74.39 190.55 75.94 191.43 77.06C192.31 78.16 193.54 78.71 195.12 78.71ZM216.229 83.33C214.589 83.33 213.159 83.02 211.939 82.4C210.719 81.78 209.769 80.89 209.089 79.73C208.409 78.57 208.069 77.2 208.069 75.62C208.069 74.42 208.259 73.35 208.639 72.41C209.019 71.45 209.569 70.64 210.289 69.98C211.009 69.3 211.869 68.79 212.869 68.45C213.869 68.09 214.989 67.91 216.229 67.91C217.869 67.91 219.299 68.22 220.519 68.84C221.739 69.46 222.679 70.35 223.339 71.51C224.019 72.65 224.359 74.02 224.359 75.62C224.359 76.8 224.169 77.87 223.789 78.83C223.409 79.79 222.859 80.61 222.139 81.29C221.439 81.95 220.579 82.46 219.559 82.82C218.559 83.16 217.449 83.33 216.229 83.33ZM216.229 79.4C216.769 79.4 217.249 79.27 217.669 79.01C218.089 78.73 218.409 78.32 218.629 77.78C218.869 77.22 218.989 76.5 218.989 75.62C218.989 74.28 218.729 73.32 218.209 72.74C217.689 72.14 217.029 71.84 216.229 71.84C215.689 71.84 215.209 71.97 214.789 72.23C214.369 72.49 214.039 72.9 213.799 73.46C213.559 74 213.439 74.72 213.439 75.62C213.439 76.94 213.699 77.9 214.219 78.5C214.739 79.1 215.409 79.4 216.229 79.4ZM229.446 88.67C228.606 88.67 227.956 88.44 227.496 87.98C227.036 87.52 226.806 86.85 226.806 85.97V70.64C226.806 69.78 227.026 69.12 227.466 68.66C227.926 68.2 228.576 67.97 229.416 67.97C230.276 67.97 230.926 68.2 231.366 68.66C231.826 69.12 232.056 69.78 232.056 70.64V72.38L231.726 70.91C232.006 70.01 232.586 69.29 233.466 68.75C234.366 68.19 235.386 67.91 236.526 67.91C237.806 67.91 238.926 68.22 239.886 68.84C240.866 69.46 241.626 70.34 242.166 71.48C242.706 72.62 242.976 74 242.976 75.62C242.976 77.2 242.706 78.57 242.166 79.73C241.626 80.89 240.866 81.78 239.886 82.4C238.926 83.02 237.806 83.33 236.526 83.33C235.426 83.33 234.436 83.07 233.556 82.55C232.676 82.03 232.086 81.35 231.786 80.51H232.146V85.97C232.146 86.85 231.906 87.52 231.426 87.98C230.966 88.44 230.306 88.67 229.446 88.67ZM234.846 79.4C235.386 79.4 235.856 79.27 236.256 79.01C236.676 78.73 237.006 78.32 237.246 77.78C237.486 77.22 237.606 76.5 237.606 75.62C237.606 74.28 237.346 73.32 236.826 72.74C236.306 72.14 235.646 71.84 234.846 71.84C234.306 71.84 233.826 71.97 233.406 72.23C232.986 72.49 232.656 72.9 232.416 73.46C232.176 74 232.056 74.72 232.056 75.62C232.056 76.94 232.316 77.9 232.836 78.5C233.356 79.1 234.026 79.4 234.846 79.4ZM251.29 83.33C250.41 83.33 249.51 83.26 248.59 83.12C247.69 83 246.87 82.77 246.13 82.43C245.63 82.23 245.27 81.96 245.05 81.62C244.85 81.28 244.75 80.92 244.75 80.54C244.77 80.16 244.88 79.82 245.08 79.52C245.3 79.2 245.58 78.98 245.92 78.86C246.28 78.72 246.68 78.73 247.12 78.89C247.96 79.19 248.71 79.41 249.37 79.55C250.05 79.67 250.7 79.73 251.32 79.73C252.06 79.73 252.59 79.63 252.91 79.43C253.23 79.21 253.39 78.93 253.39 78.59C253.39 78.29 253.28 78.06 253.06 77.9C252.86 77.74 252.57 77.63 252.19 77.57L248.86 77.03C247.62 76.81 246.66 76.36 245.98 75.68C245.3 74.98 244.96 74.07 244.96 72.95C244.96 71.91 245.25 71.02 245.83 70.28C246.43 69.52 247.24 68.94 248.26 68.54C249.3 68.12 250.49 67.91 251.83 67.91C252.73 67.91 253.55 67.98 254.29 68.12C255.03 68.24 255.75 68.47 256.45 68.81C256.89 68.99 257.2 69.25 257.38 69.59C257.56 69.93 257.63 70.29 257.59 70.67C257.55 71.03 257.42 71.37 257.2 71.69C257 71.99 256.72 72.2 256.36 72.32C256 72.42 255.58 72.39 255.1 72.23C254.44 71.97 253.85 71.78 253.33 71.66C252.83 71.54 252.36 71.48 251.92 71.48C251.1 71.48 250.52 71.59 250.18 71.81C249.84 72.03 249.67 72.31 249.67 72.65C249.67 72.91 249.76 73.13 249.94 73.31C250.12 73.47 250.4 73.58 250.78 73.64L254.11 74.21C255.39 74.41 256.37 74.85 257.05 75.53C257.75 76.19 258.1 77.09 258.1 78.23C258.1 79.85 257.48 81.11 256.24 82.01C255 82.89 253.35 83.33 251.29 83.33Z" fill="#CC0C0C"/>
<defs>
<linearGradient id="paint0_linear_743_974" x1="300.319" y1="181.108" x2="300.319" y2="161.453" gradientUnits="userSpaceOnUse">
<stop stop-color="white" stop-opacity="0.1"/>
<stop offset="1" stop-color="white" stop-opacity="0.4"/>
</linearGradient>
</defs>
</svg>
